G04 MADE WITH FRITZING*
G04 WWW.FRITZING.ORG*
G04 DOUBLE SIDED*
G04 HOLES PLATED*
G04 CONTOUR ON CENTER OF CONTOUR VECTOR*
%ASAXBY*%
%FSLAX23Y23*%
%MOIN*%
%OFA0B0*%
%SFA1.0B1.0*%
%ADD10R,2.007870X0.787402X1.991870X0.771402*%
%ADD11C,0.008000*%
%ADD12R,0.001000X0.001000*%
%LNSILK1*%
G90*
G70*
G54D11*
X4Y783D02*
X2004Y783D01*
X2004Y4D01*
X4Y4D01*
X4Y783D01*
D02*
G54D12*
X142Y443D02*
X175Y443D01*
X139Y442D02*
X178Y442D01*
X539Y442D02*
X565Y442D01*
X992Y442D02*
X1031Y442D01*
X1393Y442D02*
X1431Y442D01*
X1466Y442D02*
X1468Y442D01*
X1505Y442D02*
X1508Y442D01*
X1786Y442D02*
X1806Y442D01*
X1832Y442D02*
X1845Y442D01*
X1875Y442D02*
X1878Y442D01*
X1907Y442D02*
X1931Y442D01*
X138Y441D02*
X179Y441D01*
X538Y441D02*
X565Y441D01*
X990Y441D02*
X1033Y441D01*
X1392Y441D02*
X1434Y441D01*
X1464Y441D02*
X1470Y441D01*
X1504Y441D02*
X1509Y441D01*
X1783Y441D02*
X1807Y441D01*
X1832Y441D02*
X1845Y441D01*
X1873Y441D02*
X1879Y441D01*
X1906Y441D02*
X1933Y441D01*
X137Y440D02*
X180Y440D01*
X537Y440D02*
X565Y440D01*
X990Y440D02*
X1034Y440D01*
X1391Y440D02*
X1435Y440D01*
X1463Y440D02*
X1471Y440D01*
X1503Y440D02*
X1510Y440D01*
X1781Y440D02*
X1808Y440D01*
X1832Y440D02*
X1845Y440D01*
X1873Y440D02*
X1880Y440D01*
X1905Y440D02*
X1935Y440D01*
X136Y439D02*
X181Y439D01*
X537Y439D02*
X565Y439D01*
X989Y439D02*
X1035Y439D01*
X1390Y439D02*
X1436Y439D01*
X1463Y439D02*
X1471Y439D01*
X1502Y439D02*
X1511Y439D01*
X1780Y439D02*
X1808Y439D01*
X1832Y439D02*
X1846Y439D01*
X1872Y439D02*
X1881Y439D01*
X1905Y439D02*
X1936Y439D01*
X135Y438D02*
X182Y438D01*
X536Y438D02*
X565Y438D01*
X989Y438D02*
X1036Y438D01*
X1390Y438D02*
X1437Y438D01*
X1462Y438D02*
X1471Y438D01*
X1502Y438D02*
X1511Y438D01*
X1779Y438D02*
X1808Y438D01*
X1832Y438D02*
X1846Y438D01*
X1872Y438D02*
X1881Y438D01*
X1904Y438D02*
X1937Y438D01*
X135Y437D02*
X182Y437D01*
X536Y437D02*
X565Y437D01*
X989Y437D02*
X1037Y437D01*
X1390Y437D02*
X1438Y437D01*
X1462Y437D02*
X1471Y437D01*
X1502Y437D02*
X1511Y437D01*
X1778Y437D02*
X1808Y437D01*
X1832Y437D02*
X1847Y437D01*
X1872Y437D02*
X1881Y437D01*
X1904Y437D02*
X1938Y437D01*
X134Y436D02*
X182Y436D01*
X537Y436D02*
X565Y436D01*
X989Y436D02*
X1037Y436D01*
X1390Y436D02*
X1438Y436D01*
X1462Y436D02*
X1471Y436D01*
X1502Y436D02*
X1511Y436D01*
X1777Y436D02*
X1808Y436D01*
X1832Y436D02*
X1847Y436D01*
X1872Y436D02*
X1881Y436D01*
X1905Y436D02*
X1939Y436D01*
X134Y435D02*
X183Y435D01*
X537Y435D02*
X565Y435D01*
X990Y435D02*
X1037Y435D01*
X1391Y435D02*
X1438Y435D01*
X1462Y435D02*
X1471Y435D01*
X1502Y435D02*
X1511Y435D01*
X1776Y435D02*
X1808Y435D01*
X1832Y435D02*
X1848Y435D01*
X1872Y435D02*
X1881Y435D01*
X1905Y435D02*
X1940Y435D01*
X134Y434D02*
X183Y434D01*
X538Y434D02*
X565Y434D01*
X990Y434D02*
X1038Y434D01*
X1391Y434D02*
X1439Y434D01*
X1462Y434D02*
X1471Y434D01*
X1502Y434D02*
X1511Y434D01*
X1775Y434D02*
X1807Y434D01*
X1832Y434D02*
X1848Y434D01*
X1872Y434D02*
X1881Y434D01*
X1906Y434D02*
X1940Y434D01*
X134Y433D02*
X143Y433D01*
X174Y433D02*
X183Y433D01*
X539Y433D02*
X565Y433D01*
X992Y433D02*
X1038Y433D01*
X1393Y433D02*
X1439Y433D01*
X1462Y433D02*
X1471Y433D01*
X1502Y433D02*
X1511Y433D01*
X1775Y433D02*
X1806Y433D01*
X1832Y433D02*
X1848Y433D01*
X1872Y433D02*
X1881Y433D01*
X1907Y433D02*
X1941Y433D01*
X134Y432D02*
X143Y432D01*
X174Y432D02*
X183Y432D01*
X556Y432D02*
X565Y432D01*
X1029Y432D02*
X1038Y432D01*
X1430Y432D02*
X1439Y432D01*
X1462Y432D02*
X1471Y432D01*
X1502Y432D02*
X1511Y432D01*
X1774Y432D02*
X1787Y432D01*
X1832Y432D02*
X1849Y432D01*
X1872Y432D02*
X1881Y432D01*
X1914Y432D02*
X1923Y432D01*
X1930Y432D02*
X1941Y432D01*
X134Y431D02*
X143Y431D01*
X174Y431D02*
X183Y431D01*
X556Y431D02*
X565Y431D01*
X1029Y431D02*
X1038Y431D01*
X1430Y431D02*
X1439Y431D01*
X1462Y431D02*
X1471Y431D01*
X1502Y431D02*
X1511Y431D01*
X1773Y431D02*
X1785Y431D01*
X1832Y431D02*
X1849Y431D01*
X1872Y431D02*
X1881Y431D01*
X1914Y431D02*
X1923Y431D01*
X1931Y431D02*
X1942Y431D01*
X134Y430D02*
X143Y430D01*
X174Y430D02*
X183Y430D01*
X556Y430D02*
X565Y430D01*
X1029Y430D02*
X1038Y430D01*
X1430Y430D02*
X1439Y430D01*
X1462Y430D02*
X1471Y430D01*
X1502Y430D02*
X1511Y430D01*
X1772Y430D02*
X1784Y430D01*
X1832Y430D02*
X1850Y430D01*
X1872Y430D02*
X1881Y430D01*
X1914Y430D02*
X1923Y430D01*
X1932Y430D02*
X1942Y430D01*
X134Y429D02*
X143Y429D01*
X174Y429D02*
X183Y429D01*
X556Y429D02*
X565Y429D01*
X1029Y429D02*
X1038Y429D01*
X1430Y429D02*
X1439Y429D01*
X1462Y429D02*
X1471Y429D01*
X1502Y429D02*
X1511Y429D01*
X1772Y429D02*
X1783Y429D01*
X1832Y429D02*
X1850Y429D01*
X1872Y429D02*
X1881Y429D01*
X1914Y429D02*
X1923Y429D01*
X1933Y429D02*
X1943Y429D01*
X134Y428D02*
X143Y428D01*
X174Y428D02*
X183Y428D01*
X556Y428D02*
X565Y428D01*
X1029Y428D02*
X1038Y428D01*
X1430Y428D02*
X1439Y428D01*
X1462Y428D02*
X1471Y428D01*
X1502Y428D02*
X1511Y428D01*
X1771Y428D02*
X1783Y428D01*
X1832Y428D02*
X1851Y428D01*
X1872Y428D02*
X1881Y428D01*
X1914Y428D02*
X1923Y428D01*
X1933Y428D02*
X1943Y428D01*
X134Y427D02*
X143Y427D01*
X174Y427D02*
X183Y427D01*
X556Y427D02*
X565Y427D01*
X1029Y427D02*
X1038Y427D01*
X1430Y427D02*
X1439Y427D01*
X1462Y427D02*
X1471Y427D01*
X1502Y427D02*
X1511Y427D01*
X1770Y427D02*
X1782Y427D01*
X1832Y427D02*
X1851Y427D01*
X1872Y427D02*
X1881Y427D01*
X1914Y427D02*
X1923Y427D01*
X1934Y427D02*
X1944Y427D01*
X134Y426D02*
X143Y426D01*
X174Y426D02*
X183Y426D01*
X556Y426D02*
X565Y426D01*
X1029Y426D02*
X1038Y426D01*
X1430Y426D02*
X1439Y426D01*
X1462Y426D02*
X1471Y426D01*
X1502Y426D02*
X1511Y426D01*
X1769Y426D02*
X1781Y426D01*
X1832Y426D02*
X1852Y426D01*
X1872Y426D02*
X1881Y426D01*
X1914Y426D02*
X1923Y426D01*
X1934Y426D02*
X1944Y426D01*
X134Y425D02*
X143Y425D01*
X174Y425D02*
X183Y425D01*
X556Y425D02*
X565Y425D01*
X1029Y425D02*
X1038Y425D01*
X1430Y425D02*
X1439Y425D01*
X1462Y425D02*
X1471Y425D01*
X1502Y425D02*
X1511Y425D01*
X1769Y425D02*
X1780Y425D01*
X1832Y425D02*
X1852Y425D01*
X1872Y425D02*
X1881Y425D01*
X1914Y425D02*
X1923Y425D01*
X1935Y425D02*
X1945Y425D01*
X134Y424D02*
X143Y424D01*
X174Y424D02*
X183Y424D01*
X556Y424D02*
X565Y424D01*
X1029Y424D02*
X1038Y424D01*
X1430Y424D02*
X1439Y424D01*
X1462Y424D02*
X1471Y424D01*
X1502Y424D02*
X1511Y424D01*
X1768Y424D02*
X1780Y424D01*
X1832Y424D02*
X1852Y424D01*
X1872Y424D02*
X1881Y424D01*
X1914Y424D02*
X1923Y424D01*
X1935Y424D02*
X1945Y424D01*
X134Y423D02*
X143Y423D01*
X174Y423D02*
X183Y423D01*
X556Y423D02*
X565Y423D01*
X1029Y423D02*
X1038Y423D01*
X1430Y423D02*
X1439Y423D01*
X1462Y423D02*
X1471Y423D01*
X1502Y423D02*
X1511Y423D01*
X1767Y423D02*
X1779Y423D01*
X1832Y423D02*
X1841Y423D01*
X1843Y423D02*
X1853Y423D01*
X1872Y423D02*
X1881Y423D01*
X1914Y423D02*
X1923Y423D01*
X1936Y423D02*
X1946Y423D01*
X134Y422D02*
X143Y422D01*
X174Y422D02*
X183Y422D01*
X556Y422D02*
X565Y422D01*
X1029Y422D02*
X1038Y422D01*
X1430Y422D02*
X1439Y422D01*
X1462Y422D02*
X1471Y422D01*
X1502Y422D02*
X1511Y422D01*
X1766Y422D02*
X1778Y422D01*
X1832Y422D02*
X1841Y422D01*
X1843Y422D02*
X1853Y422D01*
X1872Y422D02*
X1881Y422D01*
X1914Y422D02*
X1923Y422D01*
X1936Y422D02*
X1946Y422D01*
X134Y421D02*
X143Y421D01*
X174Y421D02*
X183Y421D01*
X556Y421D02*
X565Y421D01*
X1029Y421D02*
X1038Y421D01*
X1430Y421D02*
X1439Y421D01*
X1462Y421D02*
X1472Y421D01*
X1502Y421D02*
X1511Y421D01*
X1765Y421D02*
X1777Y421D01*
X1832Y421D02*
X1841Y421D01*
X1844Y421D02*
X1854Y421D01*
X1872Y421D02*
X1881Y421D01*
X1914Y421D02*
X1923Y421D01*
X1937Y421D02*
X1947Y421D01*
X134Y420D02*
X143Y420D01*
X174Y420D02*
X183Y420D01*
X556Y420D02*
X565Y420D01*
X1029Y420D02*
X1038Y420D01*
X1430Y420D02*
X1439Y420D01*
X1462Y420D02*
X1472Y420D01*
X1502Y420D02*
X1511Y420D01*
X1765Y420D02*
X1776Y420D01*
X1832Y420D02*
X1841Y420D01*
X1844Y420D02*
X1854Y420D01*
X1872Y420D02*
X1881Y420D01*
X1914Y420D02*
X1923Y420D01*
X1937Y420D02*
X1947Y420D01*
X134Y419D02*
X143Y419D01*
X174Y419D02*
X183Y419D01*
X556Y419D02*
X565Y419D01*
X1029Y419D02*
X1038Y419D01*
X1430Y419D02*
X1439Y419D01*
X1462Y419D02*
X1472Y419D01*
X1501Y419D02*
X1511Y419D01*
X1764Y419D02*
X1776Y419D01*
X1832Y419D02*
X1841Y419D01*
X1845Y419D02*
X1855Y419D01*
X1872Y419D02*
X1881Y419D01*
X1914Y419D02*
X1923Y419D01*
X1938Y419D02*
X1948Y419D01*
X134Y418D02*
X143Y418D01*
X174Y418D02*
X183Y418D01*
X556Y418D02*
X565Y418D01*
X1029Y418D02*
X1038Y418D01*
X1430Y418D02*
X1439Y418D01*
X1463Y418D02*
X1473Y418D01*
X1501Y418D02*
X1511Y418D01*
X1763Y418D02*
X1775Y418D01*
X1832Y418D02*
X1841Y418D01*
X1845Y418D02*
X1855Y418D01*
X1872Y418D02*
X1881Y418D01*
X1914Y418D02*
X1923Y418D01*
X1938Y418D02*
X1948Y418D01*
X134Y417D02*
X143Y417D01*
X174Y417D02*
X183Y417D01*
X556Y417D02*
X565Y417D01*
X1029Y417D02*
X1038Y417D01*
X1430Y417D02*
X1439Y417D01*
X1463Y417D02*
X1473Y417D01*
X1500Y417D02*
X1510Y417D01*
X1763Y417D02*
X1774Y417D01*
X1832Y417D02*
X1841Y417D01*
X1845Y417D02*
X1856Y417D01*
X1872Y417D02*
X1881Y417D01*
X1914Y417D02*
X1923Y417D01*
X1939Y417D02*
X1949Y417D01*
X134Y416D02*
X143Y416D01*
X174Y416D02*
X183Y416D01*
X556Y416D02*
X565Y416D01*
X1029Y416D02*
X1038Y416D01*
X1430Y416D02*
X1439Y416D01*
X1464Y416D02*
X1474Y416D01*
X1500Y416D02*
X1510Y416D01*
X1762Y416D02*
X1773Y416D01*
X1832Y416D02*
X1841Y416D01*
X1846Y416D02*
X1856Y416D01*
X1872Y416D02*
X1881Y416D01*
X1914Y416D02*
X1923Y416D01*
X1939Y416D02*
X1949Y416D01*
X134Y415D02*
X143Y415D01*
X174Y415D02*
X183Y415D01*
X556Y415D02*
X565Y415D01*
X1029Y415D02*
X1038Y415D01*
X1430Y415D02*
X1439Y415D01*
X1464Y415D02*
X1474Y415D01*
X1500Y415D02*
X1509Y415D01*
X1762Y415D02*
X1773Y415D01*
X1832Y415D02*
X1841Y415D01*
X1846Y415D02*
X1856Y415D01*
X1872Y415D02*
X1881Y415D01*
X1914Y415D02*
X1923Y415D01*
X1940Y415D02*
X1950Y415D01*
X134Y414D02*
X143Y414D01*
X174Y414D02*
X183Y414D01*
X556Y414D02*
X565Y414D01*
X1029Y414D02*
X1038Y414D01*
X1430Y414D02*
X1439Y414D01*
X1464Y414D02*
X1474Y414D01*
X1499Y414D02*
X1509Y414D01*
X1761Y414D02*
X1772Y414D01*
X1832Y414D02*
X1841Y414D01*
X1847Y414D02*
X1857Y414D01*
X1872Y414D02*
X1881Y414D01*
X1914Y414D02*
X1923Y414D01*
X1940Y414D02*
X1950Y414D01*
X134Y413D02*
X143Y413D01*
X174Y413D02*
X183Y413D01*
X556Y413D02*
X565Y413D01*
X1029Y413D02*
X1038Y413D01*
X1430Y413D02*
X1439Y413D01*
X1465Y413D02*
X1475Y413D01*
X1499Y413D02*
X1509Y413D01*
X1761Y413D02*
X1771Y413D01*
X1832Y413D02*
X1841Y413D01*
X1847Y413D02*
X1857Y413D01*
X1872Y413D02*
X1881Y413D01*
X1914Y413D02*
X1923Y413D01*
X1941Y413D02*
X1951Y413D01*
X134Y412D02*
X143Y412D01*
X174Y412D02*
X183Y412D01*
X556Y412D02*
X565Y412D01*
X1029Y412D02*
X1038Y412D01*
X1430Y412D02*
X1439Y412D01*
X1465Y412D02*
X1475Y412D01*
X1498Y412D02*
X1508Y412D01*
X1760Y412D02*
X1770Y412D01*
X1832Y412D02*
X1841Y412D01*
X1848Y412D02*
X1858Y412D01*
X1872Y412D02*
X1881Y412D01*
X1914Y412D02*
X1923Y412D01*
X1941Y412D02*
X1951Y412D01*
X134Y411D02*
X143Y411D01*
X174Y411D02*
X183Y411D01*
X556Y411D02*
X565Y411D01*
X1029Y411D02*
X1038Y411D01*
X1429Y411D02*
X1439Y411D01*
X1466Y411D02*
X1475Y411D01*
X1498Y411D02*
X1508Y411D01*
X1760Y411D02*
X1770Y411D01*
X1832Y411D02*
X1841Y411D01*
X1848Y411D02*
X1858Y411D01*
X1872Y411D02*
X1881Y411D01*
X1914Y411D02*
X1923Y411D01*
X1942Y411D02*
X1952Y411D01*
X134Y410D02*
X143Y410D01*
X174Y410D02*
X183Y410D01*
X556Y410D02*
X565Y410D01*
X1029Y410D02*
X1038Y410D01*
X1428Y410D02*
X1438Y410D01*
X1466Y410D02*
X1476Y410D01*
X1498Y410D02*
X1508Y410D01*
X1760Y410D02*
X1769Y410D01*
X1832Y410D02*
X1841Y410D01*
X1848Y410D02*
X1859Y410D01*
X1872Y410D02*
X1881Y410D01*
X1914Y410D02*
X1923Y410D01*
X1942Y410D02*
X1952Y410D01*
X134Y409D02*
X143Y409D01*
X174Y409D02*
X183Y409D01*
X556Y409D02*
X565Y409D01*
X1029Y409D02*
X1038Y409D01*
X1427Y409D02*
X1438Y409D01*
X1466Y409D02*
X1476Y409D01*
X1497Y409D02*
X1507Y409D01*
X1760Y409D02*
X1769Y409D01*
X1832Y409D02*
X1841Y409D01*
X1849Y409D02*
X1859Y409D01*
X1872Y409D02*
X1881Y409D01*
X1914Y409D02*
X1923Y409D01*
X1943Y409D02*
X1952Y409D01*
X134Y408D02*
X143Y408D01*
X174Y408D02*
X183Y408D01*
X556Y408D02*
X565Y408D01*
X996Y408D02*
X1038Y408D01*
X1403Y408D02*
X1438Y408D01*
X1467Y408D02*
X1477Y408D01*
X1497Y408D02*
X1507Y408D01*
X1760Y408D02*
X1769Y408D01*
X1832Y408D02*
X1841Y408D01*
X1849Y408D02*
X1859Y408D01*
X1872Y408D02*
X1881Y408D01*
X1914Y408D02*
X1923Y408D01*
X1943Y408D02*
X1953Y408D01*
X134Y407D02*
X143Y407D01*
X174Y407D02*
X183Y407D01*
X556Y407D02*
X565Y407D01*
X994Y407D02*
X1038Y407D01*
X1402Y407D02*
X1437Y407D01*
X1467Y407D02*
X1477Y407D01*
X1496Y407D02*
X1506Y407D01*
X1760Y407D02*
X1769Y407D01*
X1832Y407D02*
X1841Y407D01*
X1850Y407D02*
X1860Y407D01*
X1872Y407D02*
X1881Y407D01*
X1914Y407D02*
X1923Y407D01*
X1943Y407D02*
X1953Y407D01*
X134Y406D02*
X143Y406D01*
X174Y406D02*
X183Y406D01*
X556Y406D02*
X565Y406D01*
X992Y406D02*
X1037Y406D01*
X1401Y406D02*
X1437Y406D01*
X1468Y406D02*
X1477Y406D01*
X1496Y406D02*
X1506Y406D01*
X1760Y406D02*
X1769Y406D01*
X1832Y406D02*
X1841Y406D01*
X1850Y406D02*
X1860Y406D01*
X1872Y406D02*
X1881Y406D01*
X1914Y406D02*
X1923Y406D01*
X1944Y406D02*
X1953Y406D01*
X134Y405D02*
X143Y405D01*
X174Y405D02*
X183Y405D01*
X556Y405D02*
X565Y405D01*
X991Y405D02*
X1037Y405D01*
X1400Y405D02*
X1436Y405D01*
X1468Y405D02*
X1478Y405D01*
X1496Y405D02*
X1506Y405D01*
X1760Y405D02*
X1769Y405D01*
X1832Y405D02*
X1841Y405D01*
X1851Y405D02*
X1861Y405D01*
X1872Y405D02*
X1881Y405D01*
X1914Y405D02*
X1923Y405D01*
X1944Y405D02*
X1953Y405D01*
X134Y404D02*
X143Y404D01*
X174Y404D02*
X183Y404D01*
X556Y404D02*
X565Y404D01*
X991Y404D02*
X1037Y404D01*
X1400Y404D02*
X1435Y404D01*
X1468Y404D02*
X1478Y404D01*
X1495Y404D02*
X1505Y404D01*
X1760Y404D02*
X1769Y404D01*
X1832Y404D02*
X1841Y404D01*
X1851Y404D02*
X1861Y404D01*
X1872Y404D02*
X1881Y404D01*
X1914Y404D02*
X1923Y404D01*
X1944Y404D02*
X1953Y404D01*
X134Y403D02*
X143Y403D01*
X174Y403D02*
X183Y403D01*
X556Y403D02*
X565Y403D01*
X990Y403D02*
X1036Y403D01*
X1400Y403D02*
X1435Y403D01*
X1469Y403D02*
X1479Y403D01*
X1495Y403D02*
X1505Y403D01*
X1760Y403D02*
X1769Y403D01*
X1832Y403D02*
X1841Y403D01*
X1852Y403D02*
X1862Y403D01*
X1872Y403D02*
X1881Y403D01*
X1914Y403D02*
X1923Y403D01*
X1944Y403D02*
X1953Y403D01*
X134Y402D02*
X143Y402D01*
X174Y402D02*
X183Y402D01*
X556Y402D02*
X565Y402D01*
X990Y402D02*
X1035Y402D01*
X1400Y402D02*
X1436Y402D01*
X1469Y402D02*
X1479Y402D01*
X1495Y402D02*
X1504Y402D01*
X1760Y402D02*
X1769Y402D01*
X1832Y402D02*
X1841Y402D01*
X1852Y402D02*
X1862Y402D01*
X1872Y402D02*
X1881Y402D01*
X1914Y402D02*
X1923Y402D01*
X1944Y402D02*
X1953Y402D01*
X134Y401D02*
X143Y401D01*
X174Y401D02*
X183Y401D01*
X556Y401D02*
X565Y401D01*
X989Y401D02*
X1034Y401D01*
X1401Y401D02*
X1437Y401D01*
X1469Y401D02*
X1479Y401D01*
X1494Y401D02*
X1504Y401D01*
X1760Y401D02*
X1769Y401D01*
X1832Y401D02*
X1841Y401D01*
X1852Y401D02*
X1863Y401D01*
X1872Y401D02*
X1881Y401D01*
X1914Y401D02*
X1923Y401D01*
X1944Y401D02*
X1953Y401D01*
X134Y400D02*
X143Y400D01*
X174Y400D02*
X183Y400D01*
X556Y400D02*
X565Y400D01*
X989Y400D02*
X1033Y400D01*
X1401Y400D02*
X1437Y400D01*
X1470Y400D02*
X1480Y400D01*
X1494Y400D02*
X1504Y400D01*
X1760Y400D02*
X1769Y400D01*
X1789Y400D02*
X1808Y400D01*
X1832Y400D02*
X1841Y400D01*
X1853Y400D02*
X1863Y400D01*
X1872Y400D02*
X1881Y400D01*
X1914Y400D02*
X1923Y400D01*
X1943Y400D02*
X1953Y400D01*
X134Y399D02*
X143Y399D01*
X174Y399D02*
X183Y399D01*
X556Y399D02*
X565Y399D01*
X578Y399D02*
X583Y399D01*
X989Y399D02*
X1031Y399D01*
X1403Y399D02*
X1438Y399D01*
X1470Y399D02*
X1480Y399D01*
X1493Y399D02*
X1503Y399D01*
X1760Y399D02*
X1769Y399D01*
X1787Y399D02*
X1809Y399D01*
X1832Y399D02*
X1841Y399D01*
X1853Y399D02*
X1863Y399D01*
X1872Y399D02*
X1881Y399D01*
X1914Y399D02*
X1923Y399D01*
X1943Y399D02*
X1953Y399D01*
X134Y398D02*
X143Y398D01*
X174Y398D02*
X183Y398D01*
X556Y398D02*
X565Y398D01*
X577Y398D02*
X584Y398D01*
X989Y398D02*
X998Y398D01*
X1426Y398D02*
X1438Y398D01*
X1471Y398D02*
X1481Y398D01*
X1493Y398D02*
X1503Y398D01*
X1760Y398D02*
X1769Y398D01*
X1786Y398D02*
X1809Y398D01*
X1832Y398D02*
X1841Y398D01*
X1854Y398D02*
X1864Y398D01*
X1872Y398D02*
X1881Y398D01*
X1914Y398D02*
X1923Y398D01*
X1943Y398D02*
X1952Y398D01*
X134Y397D02*
X143Y397D01*
X174Y397D02*
X183Y397D01*
X556Y397D02*
X565Y397D01*
X577Y397D02*
X585Y397D01*
X989Y397D02*
X998Y397D01*
X1428Y397D02*
X1438Y397D01*
X1471Y397D02*
X1481Y397D01*
X1493Y397D02*
X1502Y397D01*
X1760Y397D02*
X1769Y397D01*
X1785Y397D02*
X1809Y397D01*
X1832Y397D02*
X1841Y397D01*
X1854Y397D02*
X1864Y397D01*
X1872Y397D02*
X1881Y397D01*
X1914Y397D02*
X1923Y397D01*
X1942Y397D02*
X1952Y397D01*
X134Y396D02*
X143Y396D01*
X174Y396D02*
X183Y396D01*
X556Y396D02*
X565Y396D01*
X576Y396D02*
X585Y396D01*
X989Y396D02*
X998Y396D01*
X1429Y396D02*
X1439Y396D01*
X1471Y396D02*
X1481Y396D01*
X1492Y396D02*
X1502Y396D01*
X1760Y396D02*
X1769Y396D01*
X1785Y396D02*
X1809Y396D01*
X1832Y396D02*
X1841Y396D01*
X1855Y396D02*
X1865Y396D01*
X1872Y396D02*
X1881Y396D01*
X1914Y396D02*
X1923Y396D01*
X1942Y396D02*
X1952Y396D01*
X134Y395D02*
X143Y395D01*
X174Y395D02*
X183Y395D01*
X556Y395D02*
X565Y395D01*
X576Y395D02*
X585Y395D01*
X989Y395D02*
X998Y395D01*
X1429Y395D02*
X1439Y395D01*
X1472Y395D02*
X1482Y395D01*
X1492Y395D02*
X1502Y395D01*
X1760Y395D02*
X1769Y395D01*
X1785Y395D02*
X1809Y395D01*
X1832Y395D02*
X1841Y395D01*
X1855Y395D02*
X1865Y395D01*
X1872Y395D02*
X1881Y395D01*
X1914Y395D02*
X1923Y395D01*
X1941Y395D02*
X1951Y395D01*
X134Y394D02*
X143Y394D01*
X174Y394D02*
X183Y394D01*
X556Y394D02*
X565Y394D01*
X576Y394D02*
X585Y394D01*
X989Y394D02*
X998Y394D01*
X1430Y394D02*
X1439Y394D01*
X1472Y394D02*
X1482Y394D01*
X1491Y394D02*
X1501Y394D01*
X1760Y394D02*
X1769Y394D01*
X1785Y394D02*
X1809Y394D01*
X1832Y394D02*
X1841Y394D01*
X1855Y394D02*
X1866Y394D01*
X1872Y394D02*
X1881Y394D01*
X1914Y394D02*
X1923Y394D01*
X1941Y394D02*
X1951Y394D01*
X134Y393D02*
X143Y393D01*
X174Y393D02*
X183Y393D01*
X556Y393D02*
X565Y393D01*
X576Y393D02*
X585Y393D01*
X989Y393D02*
X998Y393D01*
X1430Y393D02*
X1439Y393D01*
X1473Y393D02*
X1483Y393D01*
X1491Y393D02*
X1501Y393D01*
X1760Y393D02*
X1769Y393D01*
X1785Y393D02*
X1809Y393D01*
X1832Y393D02*
X1841Y393D01*
X1856Y393D02*
X1866Y393D01*
X1872Y393D02*
X1881Y393D01*
X1914Y393D02*
X1923Y393D01*
X1940Y393D02*
X1950Y393D01*
X134Y392D02*
X143Y392D01*
X174Y392D02*
X183Y392D01*
X556Y392D02*
X565Y392D01*
X576Y392D02*
X585Y392D01*
X989Y392D02*
X998Y392D01*
X1430Y392D02*
X1439Y392D01*
X1473Y392D02*
X1483Y392D01*
X1491Y392D02*
X1500Y392D01*
X1760Y392D02*
X1769Y392D01*
X1786Y392D02*
X1809Y392D01*
X1832Y392D02*
X1841Y392D01*
X1856Y392D02*
X1866Y392D01*
X1872Y392D02*
X1881Y392D01*
X1914Y392D02*
X1923Y392D01*
X1940Y392D02*
X1950Y392D01*
X134Y391D02*
X143Y391D01*
X174Y391D02*
X183Y391D01*
X556Y391D02*
X565Y391D01*
X576Y391D02*
X585Y391D01*
X989Y391D02*
X998Y391D01*
X1430Y391D02*
X1439Y391D01*
X1473Y391D02*
X1483Y391D01*
X1490Y391D02*
X1500Y391D01*
X1760Y391D02*
X1769Y391D01*
X1787Y391D02*
X1809Y391D01*
X1832Y391D02*
X1841Y391D01*
X1857Y391D02*
X1867Y391D01*
X1872Y391D02*
X1881Y391D01*
X1914Y391D02*
X1923Y391D01*
X1939Y391D02*
X1949Y391D01*
X134Y390D02*
X143Y390D01*
X174Y390D02*
X183Y390D01*
X556Y390D02*
X565Y390D01*
X576Y390D02*
X585Y390D01*
X989Y390D02*
X998Y390D01*
X1430Y390D02*
X1439Y390D01*
X1474Y390D02*
X1484Y390D01*
X1490Y390D02*
X1500Y390D01*
X1760Y390D02*
X1769Y390D01*
X1799Y390D02*
X1809Y390D01*
X1832Y390D02*
X1841Y390D01*
X1857Y390D02*
X1867Y390D01*
X1872Y390D02*
X1881Y390D01*
X1914Y390D02*
X1923Y390D01*
X1939Y390D02*
X1949Y390D01*
X134Y389D02*
X143Y389D01*
X174Y389D02*
X183Y389D01*
X556Y389D02*
X565Y389D01*
X576Y389D02*
X585Y389D01*
X989Y389D02*
X998Y389D01*
X1430Y389D02*
X1439Y389D01*
X1474Y389D02*
X1484Y389D01*
X1489Y389D02*
X1499Y389D01*
X1760Y389D02*
X1769Y389D01*
X1799Y389D02*
X1809Y389D01*
X1832Y389D02*
X1841Y389D01*
X1858Y389D02*
X1868Y389D01*
X1872Y389D02*
X1881Y389D01*
X1914Y389D02*
X1923Y389D01*
X1938Y389D02*
X1948Y389D01*
X134Y388D02*
X143Y388D01*
X174Y388D02*
X183Y388D01*
X556Y388D02*
X565Y388D01*
X576Y388D02*
X585Y388D01*
X989Y388D02*
X998Y388D01*
X1430Y388D02*
X1439Y388D01*
X1475Y388D02*
X1484Y388D01*
X1489Y388D02*
X1499Y388D01*
X1760Y388D02*
X1769Y388D01*
X1799Y388D02*
X1809Y388D01*
X1832Y388D02*
X1841Y388D01*
X1858Y388D02*
X1868Y388D01*
X1872Y388D02*
X1881Y388D01*
X1914Y388D02*
X1923Y388D01*
X1938Y388D02*
X1948Y388D01*
X134Y387D02*
X143Y387D01*
X174Y387D02*
X183Y387D01*
X556Y387D02*
X565Y387D01*
X576Y387D02*
X585Y387D01*
X989Y387D02*
X998Y387D01*
X1430Y387D02*
X1439Y387D01*
X1475Y387D02*
X1485Y387D01*
X1489Y387D02*
X1499Y387D01*
X1760Y387D02*
X1769Y387D01*
X1799Y387D02*
X1809Y387D01*
X1832Y387D02*
X1841Y387D01*
X1859Y387D02*
X1869Y387D01*
X1872Y387D02*
X1881Y387D01*
X1914Y387D02*
X1923Y387D01*
X1937Y387D02*
X1948Y387D01*
X134Y386D02*
X143Y386D01*
X174Y386D02*
X183Y386D01*
X556Y386D02*
X565Y386D01*
X576Y386D02*
X585Y386D01*
X989Y386D02*
X998Y386D01*
X1430Y386D02*
X1439Y386D01*
X1475Y386D02*
X1485Y386D01*
X1488Y386D02*
X1498Y386D01*
X1760Y386D02*
X1769Y386D01*
X1799Y386D02*
X1809Y386D01*
X1832Y386D02*
X1841Y386D01*
X1859Y386D02*
X1869Y386D01*
X1872Y386D02*
X1881Y386D01*
X1914Y386D02*
X1923Y386D01*
X1937Y386D02*
X1947Y386D01*
X134Y385D02*
X143Y385D01*
X174Y385D02*
X183Y385D01*
X556Y385D02*
X565Y385D01*
X576Y385D02*
X585Y385D01*
X989Y385D02*
X998Y385D01*
X1430Y385D02*
X1439Y385D01*
X1476Y385D02*
X1486Y385D01*
X1488Y385D02*
X1498Y385D01*
X1760Y385D02*
X1769Y385D01*
X1799Y385D02*
X1809Y385D01*
X1832Y385D02*
X1841Y385D01*
X1859Y385D02*
X1870Y385D01*
X1872Y385D02*
X1881Y385D01*
X1914Y385D02*
X1923Y385D01*
X1936Y385D02*
X1947Y385D01*
X134Y384D02*
X143Y384D01*
X174Y384D02*
X183Y384D01*
X556Y384D02*
X565Y384D01*
X576Y384D02*
X585Y384D01*
X989Y384D02*
X998Y384D01*
X1430Y384D02*
X1439Y384D01*
X1476Y384D02*
X1497Y384D01*
X1760Y384D02*
X1769Y384D01*
X1799Y384D02*
X1809Y384D01*
X1832Y384D02*
X1841Y384D01*
X1860Y384D02*
X1870Y384D01*
X1872Y384D02*
X1881Y384D01*
X1914Y384D02*
X1923Y384D01*
X1936Y384D02*
X1946Y384D01*
X134Y383D02*
X143Y383D01*
X174Y383D02*
X183Y383D01*
X556Y383D02*
X565Y383D01*
X576Y383D02*
X585Y383D01*
X989Y383D02*
X998Y383D01*
X1430Y383D02*
X1439Y383D01*
X1476Y383D02*
X1497Y383D01*
X1760Y383D02*
X1769Y383D01*
X1799Y383D02*
X1809Y383D01*
X1832Y383D02*
X1841Y383D01*
X1860Y383D02*
X1881Y383D01*
X1914Y383D02*
X1923Y383D01*
X1935Y383D02*
X1946Y383D01*
X134Y382D02*
X143Y382D01*
X174Y382D02*
X183Y382D01*
X556Y382D02*
X565Y382D01*
X576Y382D02*
X585Y382D01*
X989Y382D02*
X998Y382D01*
X1430Y382D02*
X1439Y382D01*
X1477Y382D02*
X1497Y382D01*
X1760Y382D02*
X1769Y382D01*
X1799Y382D02*
X1809Y382D01*
X1832Y382D02*
X1841Y382D01*
X1861Y382D02*
X1881Y382D01*
X1914Y382D02*
X1923Y382D01*
X1935Y382D02*
X1945Y382D01*
X134Y381D02*
X143Y381D01*
X174Y381D02*
X183Y381D01*
X556Y381D02*
X565Y381D01*
X576Y381D02*
X585Y381D01*
X989Y381D02*
X998Y381D01*
X1430Y381D02*
X1439Y381D01*
X1477Y381D02*
X1496Y381D01*
X1760Y381D02*
X1769Y381D01*
X1799Y381D02*
X1809Y381D01*
X1832Y381D02*
X1841Y381D01*
X1861Y381D02*
X1881Y381D01*
X1914Y381D02*
X1923Y381D01*
X1934Y381D02*
X1945Y381D01*
X134Y380D02*
X143Y380D01*
X174Y380D02*
X183Y380D01*
X556Y380D02*
X565Y380D01*
X576Y380D02*
X585Y380D01*
X989Y380D02*
X998Y380D01*
X1430Y380D02*
X1439Y380D01*
X1478Y380D02*
X1496Y380D01*
X1760Y380D02*
X1769Y380D01*
X1799Y380D02*
X1809Y380D01*
X1832Y380D02*
X1841Y380D01*
X1862Y380D02*
X1881Y380D01*
X1914Y380D02*
X1923Y380D01*
X1934Y380D02*
X1944Y380D01*
X134Y379D02*
X143Y379D01*
X174Y379D02*
X183Y379D01*
X556Y379D02*
X565Y379D01*
X576Y379D02*
X585Y379D01*
X989Y379D02*
X998Y379D01*
X1430Y379D02*
X1439Y379D01*
X1478Y379D02*
X1495Y379D01*
X1760Y379D02*
X1769Y379D01*
X1799Y379D02*
X1808Y379D01*
X1832Y379D02*
X1841Y379D01*
X1862Y379D02*
X1881Y379D01*
X1914Y379D02*
X1923Y379D01*
X1933Y379D02*
X1944Y379D01*
X134Y378D02*
X143Y378D01*
X174Y378D02*
X183Y378D01*
X556Y378D02*
X565Y378D01*
X576Y378D02*
X585Y378D01*
X989Y378D02*
X998Y378D01*
X1430Y378D02*
X1439Y378D01*
X1478Y378D02*
X1495Y378D01*
X1760Y378D02*
X1769Y378D01*
X1799Y378D02*
X1808Y378D01*
X1832Y378D02*
X1841Y378D01*
X1863Y378D02*
X1881Y378D01*
X1914Y378D02*
X1923Y378D01*
X1933Y378D02*
X1943Y378D01*
X134Y377D02*
X143Y377D01*
X174Y377D02*
X183Y377D01*
X556Y377D02*
X565Y377D01*
X576Y377D02*
X585Y377D01*
X989Y377D02*
X998Y377D01*
X1430Y377D02*
X1439Y377D01*
X1479Y377D02*
X1495Y377D01*
X1760Y377D02*
X1770Y377D01*
X1799Y377D02*
X1808Y377D01*
X1832Y377D02*
X1841Y377D01*
X1863Y377D02*
X1881Y377D01*
X1914Y377D02*
X1923Y377D01*
X1932Y377D02*
X1943Y377D01*
X134Y376D02*
X143Y376D01*
X174Y376D02*
X183Y376D01*
X556Y376D02*
X565Y376D01*
X576Y376D02*
X585Y376D01*
X989Y376D02*
X998Y376D01*
X1430Y376D02*
X1439Y376D01*
X1479Y376D02*
X1494Y376D01*
X1760Y376D02*
X1771Y376D01*
X1798Y376D02*
X1808Y376D01*
X1832Y376D02*
X1841Y376D01*
X1863Y376D02*
X1881Y376D01*
X1914Y376D02*
X1923Y376D01*
X1931Y376D02*
X1942Y376D01*
X134Y375D02*
X183Y375D01*
X556Y375D02*
X565Y375D01*
X576Y375D02*
X585Y375D01*
X989Y375D02*
X998Y375D01*
X1430Y375D02*
X1439Y375D01*
X1480Y375D02*
X1494Y375D01*
X1761Y375D02*
X1772Y375D01*
X1796Y375D02*
X1808Y375D01*
X1832Y375D02*
X1841Y375D01*
X1864Y375D02*
X1881Y375D01*
X1914Y375D02*
X1923Y375D01*
X1930Y375D02*
X1942Y375D01*
X134Y374D02*
X183Y374D01*
X539Y374D02*
X585Y374D01*
X989Y374D02*
X1035Y374D01*
X1393Y374D02*
X1439Y374D01*
X1480Y374D02*
X1493Y374D01*
X1761Y374D02*
X1807Y374D01*
X1832Y374D02*
X1841Y374D01*
X1864Y374D02*
X1881Y374D01*
X1907Y374D02*
X1941Y374D01*
X134Y373D02*
X183Y373D01*
X538Y373D02*
X585Y373D01*
X989Y373D02*
X1036Y373D01*
X1392Y373D02*
X1439Y373D01*
X1480Y373D02*
X1493Y373D01*
X1761Y373D02*
X1807Y373D01*
X1832Y373D02*
X1841Y373D01*
X1865Y373D02*
X1881Y373D01*
X1906Y373D02*
X1941Y373D01*
X135Y372D02*
X182Y372D01*
X537Y372D02*
X585Y372D01*
X989Y372D02*
X1037Y372D01*
X1391Y372D02*
X1439Y372D01*
X1481Y372D02*
X1493Y372D01*
X1762Y372D02*
X1806Y372D01*
X1832Y372D02*
X1841Y372D01*
X1865Y372D02*
X1881Y372D01*
X1905Y372D02*
X1940Y372D01*
X135Y371D02*
X182Y371D01*
X537Y371D02*
X585Y371D01*
X989Y371D02*
X1037Y371D01*
X1390Y371D02*
X1438Y371D01*
X1481Y371D02*
X1492Y371D01*
X1763Y371D02*
X1806Y371D01*
X1832Y371D02*
X1841Y371D01*
X1866Y371D02*
X1881Y371D01*
X1905Y371D02*
X1939Y371D01*
X136Y370D02*
X181Y370D01*
X536Y370D02*
X585Y370D01*
X989Y370D02*
X1038Y370D01*
X1390Y370D02*
X1438Y370D01*
X1482Y370D02*
X1492Y370D01*
X1763Y370D02*
X1805Y370D01*
X1832Y370D02*
X1841Y370D01*
X1866Y370D02*
X1881Y370D01*
X1904Y370D02*
X1939Y370D01*
X137Y369D02*
X180Y369D01*
X536Y369D02*
X585Y369D01*
X989Y369D02*
X1038Y369D01*
X1390Y369D02*
X1437Y369D01*
X1482Y369D02*
X1492Y369D01*
X1764Y369D02*
X1804Y369D01*
X1832Y369D02*
X1841Y369D01*
X1866Y369D02*
X1881Y369D01*
X1904Y369D02*
X1938Y369D01*
X138Y368D02*
X179Y368D01*
X537Y368D02*
X585Y368D01*
X989Y368D02*
X1037Y368D01*
X1390Y368D02*
X1436Y368D01*
X1482Y368D02*
X1491Y368D01*
X1765Y368D02*
X1803Y368D01*
X1832Y368D02*
X1841Y368D01*
X1867Y368D02*
X1881Y368D01*
X1905Y368D02*
X1937Y368D01*
X139Y367D02*
X178Y367D01*
X537Y367D02*
X584Y367D01*
X989Y367D02*
X1037Y367D01*
X1391Y367D02*
X1435Y367D01*
X1483Y367D02*
X1491Y367D01*
X1767Y367D02*
X1802Y367D01*
X1833Y367D02*
X1840Y367D01*
X1867Y367D02*
X1881Y367D01*
X1905Y367D02*
X1935Y367D01*
X141Y366D02*
X176Y366D01*
X538Y366D02*
X584Y366D01*
X989Y366D02*
X1036Y366D01*
X1392Y366D02*
X1434Y366D01*
X1483Y366D02*
X1490Y366D01*
X1768Y366D02*
X1800Y366D01*
X1834Y366D02*
X1840Y366D01*
X1868Y366D02*
X1881Y366D01*
X1906Y366D02*
X1934Y366D01*
X539Y365D02*
X582Y365D01*
X989Y365D02*
X1035Y365D01*
X1393Y365D02*
X1432Y365D01*
X1485Y365D02*
X1489Y365D01*
X1771Y365D02*
X1797Y365D01*
X1835Y365D02*
X1838Y365D01*
X1868Y365D02*
X1881Y365D01*
X1907Y365D02*
X1931Y365D01*
X585Y115D02*
X589Y115D01*
X659Y115D02*
X666Y115D01*
X719Y115D02*
X725Y115D01*
X778Y115D02*
X800Y115D01*
X823Y115D02*
X826Y115D01*
X855Y115D02*
X859Y115D01*
X886Y115D02*
X913Y115D01*
X1001Y115D02*
X1005Y115D01*
X1033Y115D02*
X1037Y115D01*
X1060Y115D02*
X1064Y115D01*
X1093Y115D02*
X1096Y115D01*
X1194Y115D02*
X1215Y115D01*
X1712Y115D02*
X1740Y115D01*
X584Y114D02*
X590Y114D01*
X657Y114D02*
X668Y114D01*
X717Y114D02*
X727Y114D01*
X776Y114D02*
X801Y114D01*
X822Y114D02*
X827Y114D01*
X854Y114D02*
X860Y114D01*
X884Y114D02*
X915Y114D01*
X1000Y114D02*
X1006Y114D01*
X1032Y114D02*
X1038Y114D01*
X1059Y114D02*
X1065Y114D01*
X1092Y114D02*
X1097Y114D01*
X1192Y114D02*
X1216Y114D01*
X1712Y114D02*
X1742Y114D01*
X584Y113D02*
X590Y113D01*
X656Y113D02*
X669Y113D01*
X715Y113D02*
X729Y113D01*
X775Y113D02*
X801Y113D01*
X821Y113D02*
X828Y113D01*
X854Y113D02*
X861Y113D01*
X883Y113D02*
X916Y113D01*
X999Y113D02*
X1006Y113D01*
X1032Y113D02*
X1039Y113D01*
X1059Y113D02*
X1065Y113D01*
X1091Y113D02*
X1098Y113D01*
X1191Y113D02*
X1217Y113D01*
X1712Y113D02*
X1744Y113D01*
X583Y112D02*
X591Y112D01*
X655Y112D02*
X670Y112D01*
X714Y112D02*
X730Y112D01*
X774Y112D02*
X801Y112D01*
X821Y112D02*
X828Y112D01*
X854Y112D02*
X861Y112D01*
X882Y112D02*
X917Y112D01*
X999Y112D02*
X1007Y112D01*
X1031Y112D02*
X1039Y112D01*
X1058Y112D02*
X1066Y112D01*
X1091Y112D02*
X1098Y112D01*
X1190Y112D02*
X1217Y112D01*
X1544Y112D02*
X1546Y112D01*
X1712Y112D02*
X1745Y112D01*
X583Y111D02*
X591Y111D01*
X654Y111D02*
X671Y111D01*
X714Y111D02*
X730Y111D01*
X773Y111D02*
X801Y111D01*
X821Y111D02*
X828Y111D01*
X853Y111D02*
X861Y111D01*
X881Y111D02*
X918Y111D01*
X999Y111D02*
X1007Y111D01*
X1031Y111D02*
X1039Y111D01*
X1058Y111D02*
X1066Y111D01*
X1091Y111D02*
X1098Y111D01*
X1189Y111D02*
X1217Y111D01*
X1543Y111D02*
X1548Y111D01*
X1712Y111D02*
X1746Y111D01*
X583Y110D02*
X591Y110D01*
X654Y110D02*
X672Y110D01*
X713Y110D02*
X731Y110D01*
X772Y110D02*
X801Y110D01*
X821Y110D02*
X828Y110D01*
X853Y110D02*
X861Y110D01*
X881Y110D02*
X919Y110D01*
X999Y110D02*
X1008Y110D01*
X1030Y110D02*
X1039Y110D01*
X1058Y110D02*
X1066Y110D01*
X1091Y110D02*
X1098Y110D01*
X1188Y110D02*
X1217Y110D01*
X1542Y110D02*
X1548Y110D01*
X1712Y110D02*
X1747Y110D01*
X583Y109D02*
X591Y109D01*
X653Y109D02*
X672Y109D01*
X712Y109D02*
X732Y109D01*
X772Y109D02*
X800Y109D01*
X821Y109D02*
X828Y109D01*
X853Y109D02*
X861Y109D01*
X881Y109D02*
X919Y109D01*
X1000Y109D02*
X1009Y109D01*
X1029Y109D02*
X1038Y109D01*
X1058Y109D02*
X1066Y109D01*
X1091Y109D02*
X1098Y109D01*
X1187Y109D02*
X1216Y109D01*
X1542Y109D02*
X1549Y109D01*
X1712Y109D02*
X1748Y109D01*
X583Y108D02*
X591Y108D01*
X653Y108D02*
X673Y108D01*
X712Y108D02*
X732Y108D01*
X771Y108D02*
X799Y108D01*
X821Y108D02*
X828Y108D01*
X853Y108D02*
X861Y108D01*
X880Y108D02*
X920Y108D01*
X1000Y108D02*
X1009Y108D01*
X1029Y108D02*
X1037Y108D01*
X1058Y108D02*
X1066Y108D01*
X1091Y108D02*
X1098Y108D01*
X1187Y108D02*
X1215Y108D01*
X1542Y108D02*
X1549Y108D01*
X1712Y108D02*
X1749Y108D01*
X583Y107D02*
X591Y107D01*
X652Y107D02*
X661Y107D01*
X665Y107D02*
X673Y107D01*
X711Y107D02*
X720Y107D01*
X724Y107D02*
X733Y107D01*
X771Y107D02*
X780Y107D01*
X821Y107D02*
X828Y107D01*
X853Y107D02*
X861Y107D01*
X880Y107D02*
X888Y107D01*
X912Y107D02*
X920Y107D01*
X1001Y107D02*
X1010Y107D01*
X1028Y107D02*
X1037Y107D01*
X1058Y107D02*
X1066Y107D01*
X1091Y107D02*
X1098Y107D01*
X1186Y107D02*
X1196Y107D01*
X1542Y107D02*
X1549Y107D01*
X1712Y107D02*
X1719Y107D01*
X1739Y107D02*
X1749Y107D01*
X583Y106D02*
X591Y106D01*
X652Y106D02*
X660Y106D01*
X665Y106D02*
X674Y106D01*
X711Y106D02*
X719Y106D01*
X725Y106D02*
X733Y106D01*
X770Y106D02*
X779Y106D01*
X821Y106D02*
X828Y106D01*
X853Y106D02*
X861Y106D01*
X880Y106D02*
X888Y106D01*
X912Y106D02*
X920Y106D01*
X1002Y106D02*
X1010Y106D01*
X1028Y106D02*
X1036Y106D01*
X1058Y106D02*
X1066Y106D01*
X1091Y106D02*
X1098Y106D01*
X1186Y106D02*
X1194Y106D01*
X1542Y106D02*
X1549Y106D01*
X1712Y106D02*
X1719Y106D01*
X1741Y106D02*
X1750Y106D01*
X583Y105D02*
X591Y105D01*
X651Y105D02*
X659Y105D01*
X666Y105D02*
X674Y105D01*
X710Y105D02*
X719Y105D01*
X725Y105D02*
X734Y105D01*
X770Y105D02*
X778Y105D01*
X821Y105D02*
X828Y105D01*
X853Y105D02*
X861Y105D01*
X880Y105D02*
X888Y105D01*
X913Y105D02*
X920Y105D01*
X1002Y105D02*
X1011Y105D01*
X1027Y105D02*
X1036Y105D01*
X1058Y105D02*
X1066Y105D01*
X1091Y105D02*
X1098Y105D01*
X1185Y105D02*
X1194Y105D01*
X1542Y105D02*
X1549Y105D01*
X1712Y105D02*
X1719Y105D01*
X1742Y105D02*
X1750Y105D01*
X583Y104D02*
X591Y104D01*
X651Y104D02*
X659Y104D01*
X666Y104D02*
X675Y104D01*
X710Y104D02*
X718Y104D01*
X726Y104D02*
X734Y104D01*
X769Y104D02*
X778Y104D01*
X821Y104D02*
X828Y104D01*
X853Y104D02*
X861Y104D01*
X881Y104D02*
X889Y104D01*
X913Y104D02*
X920Y104D01*
X1003Y104D02*
X1011Y104D01*
X1026Y104D02*
X1035Y104D01*
X1058Y104D02*
X1066Y104D01*
X1091Y104D02*
X1098Y104D01*
X1185Y104D02*
X1193Y104D01*
X1542Y104D02*
X1549Y104D01*
X1712Y104D02*
X1719Y104D01*
X1743Y104D02*
X1751Y104D01*
X583Y103D02*
X591Y103D01*
X650Y103D02*
X658Y103D01*
X667Y103D02*
X675Y103D01*
X709Y103D02*
X718Y103D01*
X726Y103D02*
X735Y103D01*
X769Y103D02*
X777Y103D01*
X821Y103D02*
X828Y103D01*
X853Y103D02*
X861Y103D01*
X881Y103D02*
X890Y103D01*
X913Y103D02*
X920Y103D01*
X1003Y103D02*
X1012Y103D01*
X1026Y103D02*
X1035Y103D01*
X1058Y103D02*
X1066Y103D01*
X1091Y103D02*
X1098Y103D01*
X1184Y103D02*
X1193Y103D01*
X1542Y103D02*
X1549Y103D01*
X1712Y103D02*
X1719Y103D01*
X1743Y103D02*
X1751Y103D01*
X583Y102D02*
X591Y102D01*
X650Y102D02*
X658Y102D01*
X667Y102D02*
X676Y102D01*
X709Y102D02*
X717Y102D01*
X727Y102D02*
X735Y102D01*
X768Y102D02*
X777Y102D01*
X821Y102D02*
X828Y102D01*
X853Y102D02*
X861Y102D01*
X882Y102D02*
X891Y102D01*
X914Y102D02*
X919Y102D01*
X1004Y102D02*
X1013Y102D01*
X1025Y102D02*
X1034Y102D01*
X1058Y102D02*
X1066Y102D01*
X1091Y102D02*
X1098Y102D01*
X1184Y102D02*
X1192Y102D01*
X1542Y102D02*
X1549Y102D01*
X1712Y102D02*
X1719Y102D01*
X1744Y102D02*
X1751Y102D01*
X583Y101D02*
X591Y101D01*
X649Y101D02*
X657Y101D01*
X668Y101D02*
X676Y101D01*
X708Y101D02*
X717Y101D01*
X727Y101D02*
X736Y101D01*
X768Y101D02*
X776Y101D01*
X821Y101D02*
X828Y101D01*
X853Y101D02*
X861Y101D01*
X882Y101D02*
X892Y101D01*
X915Y101D02*
X918Y101D01*
X1005Y101D02*
X1013Y101D01*
X1025Y101D02*
X1033Y101D01*
X1058Y101D02*
X1066Y101D01*
X1091Y101D02*
X1098Y101D01*
X1183Y101D02*
X1192Y101D01*
X1542Y101D02*
X1549Y101D01*
X1712Y101D02*
X1719Y101D01*
X1744Y101D02*
X1751Y101D01*
X583Y100D02*
X591Y100D01*
X649Y100D02*
X657Y100D01*
X668Y100D02*
X677Y100D01*
X708Y100D02*
X716Y100D01*
X728Y100D02*
X736Y100D01*
X767Y100D02*
X776Y100D01*
X821Y100D02*
X828Y100D01*
X853Y100D02*
X861Y100D01*
X883Y100D02*
X892Y100D01*
X1005Y100D02*
X1014Y100D01*
X1024Y100D02*
X1033Y100D01*
X1058Y100D02*
X1066Y100D01*
X1091Y100D02*
X1098Y100D01*
X1183Y100D02*
X1191Y100D01*
X1542Y100D02*
X1549Y100D01*
X1712Y100D02*
X1719Y100D01*
X1744Y100D02*
X1751Y100D01*
X583Y99D02*
X591Y99D01*
X648Y99D02*
X656Y99D01*
X669Y99D02*
X677Y99D01*
X707Y99D02*
X716Y99D01*
X728Y99D02*
X737Y99D01*
X767Y99D02*
X775Y99D01*
X821Y99D02*
X828Y99D01*
X853Y99D02*
X861Y99D01*
X883Y99D02*
X893Y99D01*
X1006Y99D02*
X1014Y99D01*
X1024Y99D02*
X1032Y99D01*
X1058Y99D02*
X1066Y99D01*
X1091Y99D02*
X1098Y99D01*
X1182Y99D02*
X1191Y99D01*
X1542Y99D02*
X1549Y99D01*
X1712Y99D02*
X1719Y99D01*
X1744Y99D02*
X1751Y99D01*
X583Y98D02*
X591Y98D01*
X648Y98D02*
X656Y98D01*
X669Y98D02*
X678Y98D01*
X707Y98D02*
X715Y98D01*
X729Y98D02*
X737Y98D01*
X766Y98D02*
X775Y98D01*
X821Y98D02*
X828Y98D01*
X853Y98D02*
X861Y98D01*
X884Y98D02*
X894Y98D01*
X1006Y98D02*
X1015Y98D01*
X1023Y98D02*
X1032Y98D01*
X1058Y98D02*
X1066Y98D01*
X1091Y98D02*
X1098Y98D01*
X1182Y98D02*
X1190Y98D01*
X1249Y98D02*
X1264Y98D01*
X1298Y98D02*
X1301Y98D01*
X1316Y98D02*
X1326Y98D01*
X1358Y98D02*
X1360Y98D01*
X1375Y98D02*
X1385Y98D01*
X1427Y98D02*
X1442Y98D01*
X1490Y98D02*
X1511Y98D01*
X1536Y98D02*
X1567Y98D01*
X1605Y98D02*
X1620Y98D01*
X1655Y98D02*
X1657Y98D01*
X1671Y98D02*
X1683Y98D01*
X1712Y98D02*
X1719Y98D01*
X1744Y98D02*
X1751Y98D01*
X1781Y98D02*
X1801Y98D01*
X1839Y98D02*
X1862Y98D01*
X1902Y98D02*
X1917Y98D01*
X583Y97D02*
X591Y97D01*
X647Y97D02*
X655Y97D01*
X670Y97D02*
X678Y97D01*
X706Y97D02*
X715Y97D01*
X729Y97D02*
X738Y97D01*
X766Y97D02*
X774Y97D01*
X821Y97D02*
X828Y97D01*
X853Y97D02*
X861Y97D01*
X885Y97D02*
X895Y97D01*
X1007Y97D02*
X1016Y97D01*
X1022Y97D02*
X1031Y97D01*
X1058Y97D02*
X1066Y97D01*
X1091Y97D02*
X1098Y97D01*
X1181Y97D02*
X1190Y97D01*
X1246Y97D02*
X1267Y97D01*
X1297Y97D02*
X1302Y97D01*
X1313Y97D02*
X1328Y97D01*
X1356Y97D02*
X1361Y97D01*
X1373Y97D02*
X1387Y97D01*
X1424Y97D02*
X1445Y97D01*
X1488Y97D02*
X1513Y97D01*
X1535Y97D02*
X1568Y97D01*
X1602Y97D02*
X1623Y97D01*
X1653Y97D02*
X1658Y97D01*
X1669Y97D02*
X1685Y97D01*
X1712Y97D02*
X1719Y97D01*
X1744Y97D02*
X1751Y97D01*
X1780Y97D02*
X1803Y97D01*
X1837Y97D02*
X1864Y97D01*
X1899Y97D02*
X1920Y97D01*
X583Y96D02*
X591Y96D01*
X647Y96D02*
X655Y96D01*
X670Y96D02*
X679Y96D01*
X706Y96D02*
X714Y96D01*
X730Y96D02*
X738Y96D01*
X765Y96D02*
X774Y96D01*
X821Y96D02*
X828Y96D01*
X853Y96D02*
X861Y96D01*
X886Y96D02*
X895Y96D01*
X1007Y96D02*
X1016Y96D01*
X1022Y96D02*
X1030Y96D01*
X1058Y96D02*
X1066Y96D01*
X1091Y96D02*
X1098Y96D01*
X1181Y96D02*
X1189Y96D01*
X1245Y96D02*
X1268Y96D01*
X1296Y96D02*
X1303Y96D01*
X1311Y96D02*
X1330Y96D01*
X1356Y96D02*
X1362Y96D01*
X1371Y96D02*
X1389Y96D01*
X1423Y96D02*
X1447Y96D01*
X1486Y96D02*
X1513Y96D01*
X1534Y96D02*
X1569Y96D01*
X1601Y96D02*
X1625Y96D01*
X1653Y96D02*
X1659Y96D01*
X1668Y96D02*
X1687Y96D01*
X1712Y96D02*
X1719Y96D01*
X1744Y96D02*
X1751Y96D01*
X1779Y96D02*
X1805Y96D01*
X1835Y96D02*
X1866Y96D01*
X1898Y96D02*
X1922Y96D01*
X583Y95D02*
X591Y95D01*
X646Y95D02*
X654Y95D01*
X671Y95D02*
X679Y95D01*
X705Y95D02*
X714Y95D01*
X730Y95D02*
X739Y95D01*
X765Y95D02*
X773Y95D01*
X821Y95D02*
X828Y95D01*
X853Y95D02*
X861Y95D01*
X887Y95D02*
X896Y95D01*
X1008Y95D02*
X1017Y95D01*
X1021Y95D02*
X1030Y95D01*
X1058Y95D02*
X1066Y95D01*
X1091Y95D02*
X1098Y95D01*
X1180Y95D02*
X1189Y95D01*
X1243Y95D02*
X1270Y95D01*
X1296Y95D02*
X1303Y95D01*
X1310Y95D02*
X1331Y95D01*
X1355Y95D02*
X1362Y95D01*
X1369Y95D02*
X1390Y95D01*
X1421Y95D02*
X1448Y95D01*
X1484Y95D02*
X1514Y95D01*
X1534Y95D02*
X1569Y95D01*
X1600Y95D02*
X1626Y95D01*
X1652Y95D02*
X1659Y95D01*
X1667Y95D02*
X1688Y95D01*
X1712Y95D02*
X1719Y95D01*
X1744Y95D02*
X1751Y95D01*
X1779Y95D02*
X1806Y95D01*
X1834Y95D02*
X1867Y95D01*
X1896Y95D02*
X1923Y95D01*
X583Y94D02*
X591Y94D01*
X646Y94D02*
X654Y94D01*
X671Y94D02*
X680Y94D01*
X705Y94D02*
X713Y94D01*
X731Y94D02*
X739Y94D01*
X764Y94D02*
X773Y94D01*
X821Y94D02*
X828Y94D01*
X853Y94D02*
X861Y94D01*
X887Y94D02*
X897Y94D01*
X1009Y94D02*
X1017Y94D01*
X1021Y94D02*
X1029Y94D01*
X1058Y94D02*
X1066Y94D01*
X1091Y94D02*
X1098Y94D01*
X1180Y94D02*
X1188Y94D01*
X1242Y94D02*
X1271Y94D01*
X1296Y94D02*
X1303Y94D01*
X1308Y94D02*
X1332Y94D01*
X1355Y94D02*
X1363Y94D01*
X1368Y94D02*
X1391Y94D01*
X1420Y94D02*
X1449Y94D01*
X1483Y94D02*
X1514Y94D01*
X1533Y94D02*
X1569Y94D01*
X1598Y94D02*
X1627Y94D01*
X1652Y94D02*
X1659Y94D01*
X1666Y94D02*
X1689Y94D01*
X1712Y94D02*
X1719Y94D01*
X1744Y94D02*
X1751Y94D01*
X1779Y94D02*
X1807Y94D01*
X1833Y94D02*
X1868Y94D01*
X1895Y94D02*
X1924Y94D01*
X583Y93D02*
X591Y93D01*
X645Y93D02*
X653Y93D01*
X672Y93D02*
X680Y93D01*
X704Y93D02*
X713Y93D01*
X731Y93D02*
X740Y93D01*
X764Y93D02*
X772Y93D01*
X821Y93D02*
X828Y93D01*
X853Y93D02*
X861Y93D01*
X888Y93D02*
X898Y93D01*
X1009Y93D02*
X1018Y93D01*
X1020Y93D02*
X1029Y93D01*
X1058Y93D02*
X1066Y93D01*
X1091Y93D02*
X1098Y93D01*
X1179Y93D02*
X1188Y93D01*
X1241Y93D02*
X1272Y93D01*
X1296Y93D02*
X1303Y93D01*
X1307Y93D02*
X1333Y93D01*
X1355Y93D02*
X1363Y93D01*
X1366Y93D02*
X1392Y93D01*
X1419Y93D02*
X1450Y93D01*
X1482Y93D02*
X1514Y93D01*
X1534Y93D02*
X1569Y93D01*
X1597Y93D02*
X1628Y93D01*
X1652Y93D02*
X1659Y93D01*
X1665Y93D02*
X1690Y93D01*
X1712Y93D02*
X1719Y93D01*
X1743Y93D02*
X1751Y93D01*
X1779Y93D02*
X1808Y93D01*
X1833Y93D02*
X1869Y93D01*
X1894Y93D02*
X1925Y93D01*
X583Y92D02*
X591Y92D01*
X645Y92D02*
X653Y92D01*
X672Y92D02*
X681Y92D01*
X704Y92D02*
X712Y92D01*
X732Y92D02*
X740Y92D01*
X763Y92D02*
X772Y92D01*
X821Y92D02*
X828Y92D01*
X853Y92D02*
X861Y92D01*
X889Y92D02*
X899Y92D01*
X1010Y92D02*
X1028Y92D01*
X1058Y92D02*
X1066Y92D01*
X1091Y92D02*
X1098Y92D01*
X1179Y92D02*
X1187Y92D01*
X1240Y92D02*
X1273Y92D01*
X1296Y92D02*
X1303Y92D01*
X1305Y92D02*
X1333Y92D01*
X1355Y92D02*
X1393Y92D01*
X1418Y92D02*
X1451Y92D01*
X1481Y92D02*
X1513Y92D01*
X1534Y92D02*
X1568Y92D01*
X1596Y92D02*
X1629Y92D01*
X1652Y92D02*
X1659Y92D01*
X1664Y92D02*
X1690Y92D01*
X1712Y92D02*
X1719Y92D01*
X1743Y92D02*
X1751Y92D01*
X1780Y92D02*
X1808Y92D01*
X1832Y92D02*
X1869Y92D01*
X1893Y92D02*
X1926Y92D01*
X583Y91D02*
X591Y91D01*
X644Y91D02*
X652Y91D01*
X673Y91D02*
X681Y91D01*
X704Y91D02*
X712Y91D01*
X732Y91D02*
X740Y91D01*
X763Y91D02*
X771Y91D01*
X821Y91D02*
X828Y91D01*
X853Y91D02*
X861Y91D01*
X890Y91D02*
X899Y91D01*
X1010Y91D02*
X1027Y91D01*
X1058Y91D02*
X1066Y91D01*
X1091Y91D02*
X1098Y91D01*
X1179Y91D02*
X1187Y91D01*
X1239Y91D02*
X1274Y91D01*
X1296Y91D02*
X1334Y91D01*
X1355Y91D02*
X1393Y91D01*
X1417Y91D02*
X1452Y91D01*
X1480Y91D02*
X1512Y91D01*
X1535Y91D02*
X1567Y91D01*
X1595Y91D02*
X1630Y91D01*
X1652Y91D02*
X1659Y91D01*
X1662Y91D02*
X1691Y91D01*
X1712Y91D02*
X1719Y91D01*
X1742Y91D02*
X1751Y91D01*
X1781Y91D02*
X1809Y91D01*
X1832Y91D02*
X1869Y91D01*
X1892Y91D02*
X1927Y91D01*
X583Y90D02*
X591Y90D01*
X644Y90D02*
X652Y90D01*
X674Y90D02*
X681Y90D01*
X703Y90D02*
X711Y90D01*
X733Y90D02*
X741Y90D01*
X763Y90D02*
X771Y90D01*
X821Y90D02*
X828Y90D01*
X853Y90D02*
X861Y90D01*
X890Y90D02*
X900Y90D01*
X1011Y90D02*
X1027Y90D01*
X1058Y90D02*
X1066Y90D01*
X1091Y90D02*
X1098Y90D01*
X1178Y90D02*
X1186Y90D01*
X1239Y90D02*
X1250Y90D01*
X1263Y90D02*
X1275Y90D01*
X1296Y90D02*
X1316Y90D01*
X1324Y90D02*
X1334Y90D01*
X1355Y90D02*
X1376Y90D01*
X1383Y90D02*
X1393Y90D01*
X1417Y90D02*
X1428Y90D01*
X1441Y90D02*
X1453Y90D01*
X1479Y90D02*
X1492Y90D01*
X1541Y90D02*
X1549Y90D01*
X1595Y90D02*
X1606Y90D01*
X1619Y90D02*
X1631Y90D01*
X1652Y90D02*
X1673Y90D01*
X1681Y90D02*
X1691Y90D01*
X1712Y90D02*
X1719Y90D01*
X1741Y90D02*
X1750Y90D01*
X1799Y90D02*
X1809Y90D01*
X1831Y90D02*
X1840Y90D01*
X1860Y90D02*
X1869Y90D01*
X1892Y90D02*
X1903Y90D01*
X1916Y90D02*
X1928Y90D01*
X583Y89D02*
X591Y89D01*
X644Y89D02*
X651Y89D01*
X674Y89D02*
X682Y89D01*
X703Y89D02*
X711Y89D01*
X733Y89D02*
X741Y89D01*
X762Y89D02*
X770Y89D01*
X821Y89D02*
X828Y89D01*
X853Y89D02*
X861Y89D01*
X891Y89D02*
X901Y89D01*
X1012Y89D02*
X1026Y89D01*
X1058Y89D02*
X1066Y89D01*
X1091Y89D02*
X1098Y89D01*
X1178Y89D02*
X1186Y89D01*
X1238Y89D02*
X1248Y89D01*
X1265Y89D02*
X1275Y89D01*
X1296Y89D02*
X1315Y89D01*
X1326Y89D02*
X1334Y89D01*
X1355Y89D02*
X1374Y89D01*
X1385Y89D02*
X1394Y89D01*
X1416Y89D02*
X1426Y89D01*
X1443Y89D02*
X1453Y89D01*
X1478Y89D02*
X1490Y89D01*
X1542Y89D02*
X1549Y89D01*
X1594Y89D02*
X1604Y89D01*
X1621Y89D02*
X1631Y89D01*
X1652Y89D02*
X1672Y89D01*
X1683Y89D02*
X1692Y89D01*
X1712Y89D02*
X1719Y89D01*
X1740Y89D02*
X1750Y89D01*
X1801Y89D02*
X1809Y89D01*
X1831Y89D02*
X1839Y89D01*
X1862Y89D02*
X1869Y89D01*
X1891Y89D02*
X1901Y89D01*
X1918Y89D02*
X1928Y89D01*
X583Y88D02*
X591Y88D01*
X643Y88D02*
X651Y88D01*
X674Y88D02*
X682Y88D01*
X703Y88D02*
X710Y88D01*
X734Y88D02*
X742Y88D01*
X762Y88D02*
X770Y88D01*
X821Y88D02*
X829Y88D01*
X853Y88D02*
X861Y88D01*
X892Y88D02*
X902Y88D01*
X1012Y88D02*
X1026Y88D01*
X1058Y88D02*
X1066Y88D01*
X1091Y88D02*
X1098Y88D01*
X1178Y88D02*
X1185Y88D01*
X1237Y88D02*
X1247Y88D01*
X1266Y88D02*
X1276Y88D01*
X1296Y88D02*
X1313Y88D01*
X1327Y88D02*
X1335Y88D01*
X1355Y88D02*
X1373Y88D01*
X1386Y88D02*
X1394Y88D01*
X1416Y88D02*
X1425Y88D01*
X1445Y88D02*
X1454Y88D01*
X1477Y88D02*
X1488Y88D01*
X1542Y88D02*
X1549Y88D01*
X1594Y88D02*
X1603Y88D01*
X1623Y88D02*
X1632Y88D01*
X1652Y88D02*
X1671Y88D01*
X1684Y88D02*
X1692Y88D01*
X1712Y88D02*
X1719Y88D01*
X1736Y88D02*
X1749Y88D01*
X1802Y88D02*
X1810Y88D01*
X1831Y88D02*
X1839Y88D01*
X1863Y88D02*
X1868Y88D01*
X1891Y88D02*
X1900Y88D01*
X1920Y88D02*
X1929Y88D01*
X583Y87D02*
X591Y87D01*
X643Y87D02*
X651Y87D01*
X675Y87D02*
X682Y87D01*
X702Y87D02*
X710Y87D01*
X734Y87D02*
X742Y87D01*
X762Y87D02*
X769Y87D01*
X821Y87D02*
X861Y87D01*
X893Y87D02*
X902Y87D01*
X1013Y87D02*
X1025Y87D01*
X1058Y87D02*
X1098Y87D01*
X1177Y87D02*
X1185Y87D01*
X1237Y87D02*
X1246Y87D01*
X1267Y87D02*
X1276Y87D01*
X1296Y87D02*
X1312Y87D01*
X1327Y87D02*
X1335Y87D01*
X1355Y87D02*
X1371Y87D01*
X1387Y87D02*
X1394Y87D01*
X1415Y87D02*
X1424Y87D01*
X1446Y87D02*
X1454Y87D01*
X1476Y87D02*
X1487Y87D01*
X1542Y87D02*
X1549Y87D01*
X1593Y87D02*
X1602Y87D01*
X1624Y87D02*
X1632Y87D01*
X1652Y87D02*
X1669Y87D01*
X1685Y87D02*
X1692Y87D01*
X1712Y87D02*
X1749Y87D01*
X1802Y87D02*
X1810Y87D01*
X1831Y87D02*
X1839Y87D01*
X1865Y87D02*
X1867Y87D01*
X1890Y87D02*
X1899Y87D01*
X1921Y87D02*
X1929Y87D01*
X583Y86D02*
X591Y86D01*
X643Y86D02*
X650Y86D01*
X675Y86D02*
X683Y86D01*
X702Y86D02*
X710Y86D01*
X734Y86D02*
X742Y86D01*
X762Y86D02*
X769Y86D01*
X821Y86D02*
X861Y86D01*
X894Y86D02*
X903Y86D01*
X1013Y86D02*
X1025Y86D01*
X1058Y86D02*
X1098Y86D01*
X1177Y86D02*
X1185Y86D01*
X1237Y86D02*
X1245Y86D01*
X1268Y86D02*
X1276Y86D01*
X1296Y86D02*
X1310Y86D01*
X1327Y86D02*
X1335Y86D01*
X1355Y86D02*
X1370Y86D01*
X1387Y86D02*
X1394Y86D01*
X1415Y86D02*
X1423Y86D01*
X1446Y86D02*
X1454Y86D01*
X1476Y86D02*
X1486Y86D01*
X1542Y86D02*
X1549Y86D01*
X1593Y86D02*
X1601Y86D01*
X1625Y86D02*
X1632Y86D01*
X1652Y86D02*
X1668Y86D01*
X1685Y86D02*
X1692Y86D01*
X1712Y86D02*
X1748Y86D01*
X1802Y86D02*
X1810Y86D01*
X1832Y86D02*
X1840Y86D01*
X1890Y86D02*
X1898Y86D01*
X1921Y86D02*
X1929Y86D01*
X583Y85D02*
X591Y85D01*
X643Y85D02*
X650Y85D01*
X675Y85D02*
X683Y85D01*
X702Y85D02*
X710Y85D01*
X735Y85D02*
X742Y85D01*
X762Y85D02*
X769Y85D01*
X821Y85D02*
X861Y85D01*
X894Y85D02*
X904Y85D01*
X1014Y85D02*
X1024Y85D01*
X1058Y85D02*
X1098Y85D01*
X1177Y85D02*
X1185Y85D01*
X1237Y85D02*
X1244Y85D01*
X1269Y85D02*
X1276Y85D01*
X1296Y85D02*
X1309Y85D01*
X1327Y85D02*
X1335Y85D01*
X1355Y85D02*
X1368Y85D01*
X1387Y85D02*
X1394Y85D01*
X1415Y85D02*
X1422Y85D01*
X1447Y85D02*
X1454Y85D01*
X1475Y85D02*
X1485Y85D01*
X1542Y85D02*
X1549Y85D01*
X1593Y85D02*
X1600Y85D01*
X1625Y85D02*
X1633Y85D01*
X1652Y85D02*
X1667Y85D01*
X1685Y85D02*
X1692Y85D01*
X1712Y85D02*
X1747Y85D01*
X1802Y85D02*
X1810Y85D01*
X1832Y85D02*
X1842Y85D01*
X1890Y85D02*
X1897Y85D01*
X1922Y85D02*
X1929Y85D01*
X583Y84D02*
X591Y84D01*
X643Y84D02*
X650Y84D01*
X675Y84D02*
X683Y84D01*
X702Y84D02*
X709Y84D01*
X735Y84D02*
X742Y84D01*
X762Y84D02*
X769Y84D01*
X821Y84D02*
X861Y84D01*
X895Y84D02*
X905Y84D01*
X1014Y84D02*
X1023Y84D01*
X1058Y84D02*
X1098Y84D01*
X1177Y84D02*
X1184Y84D01*
X1237Y84D02*
X1244Y84D01*
X1269Y84D02*
X1276Y84D01*
X1296Y84D02*
X1307Y84D01*
X1328Y84D02*
X1335Y84D01*
X1355Y84D02*
X1366Y84D01*
X1387Y84D02*
X1394Y84D01*
X1415Y84D02*
X1422Y84D01*
X1447Y84D02*
X1455Y84D01*
X1475Y84D02*
X1484Y84D01*
X1542Y84D02*
X1549Y84D01*
X1593Y84D02*
X1600Y84D01*
X1625Y84D02*
X1633Y84D01*
X1652Y84D02*
X1666Y84D01*
X1685Y84D02*
X1692Y84D01*
X1712Y84D02*
X1746Y84D01*
X1803Y84D02*
X1810Y84D01*
X1832Y84D02*
X1844Y84D01*
X1890Y84D02*
X1897Y84D01*
X1922Y84D02*
X1930Y84D01*
X583Y83D02*
X591Y83D01*
X643Y83D02*
X650Y83D01*
X675Y83D02*
X683Y83D01*
X702Y83D02*
X710Y83D01*
X735Y83D02*
X742Y83D01*
X762Y83D02*
X769Y83D01*
X821Y83D02*
X861Y83D01*
X896Y83D02*
X906Y83D01*
X1014Y83D02*
X1024Y83D01*
X1058Y83D02*
X1098Y83D01*
X1177Y83D02*
X1185Y83D01*
X1237Y83D02*
X1244Y83D01*
X1269Y83D02*
X1276Y83D01*
X1296Y83D02*
X1306Y83D01*
X1328Y83D02*
X1335Y83D01*
X1355Y83D02*
X1365Y83D01*
X1387Y83D02*
X1394Y83D01*
X1415Y83D02*
X1422Y83D01*
X1447Y83D02*
X1455Y83D01*
X1474Y83D02*
X1483Y83D01*
X1542Y83D02*
X1549Y83D01*
X1593Y83D02*
X1600Y83D01*
X1625Y83D02*
X1633Y83D01*
X1652Y83D02*
X1665Y83D01*
X1685Y83D02*
X1692Y83D01*
X1712Y83D02*
X1746Y83D01*
X1803Y83D02*
X1810Y83D01*
X1833Y83D02*
X1846Y83D01*
X1890Y83D02*
X1897Y83D01*
X1922Y83D02*
X1930Y83D01*
X583Y82D02*
X591Y82D01*
X643Y82D02*
X650Y82D01*
X675Y82D02*
X683Y82D01*
X702Y82D02*
X710Y82D01*
X735Y82D02*
X742Y82D01*
X762Y82D02*
X769Y82D01*
X821Y82D02*
X861Y82D01*
X897Y82D02*
X906Y82D01*
X1014Y82D02*
X1024Y82D01*
X1058Y82D02*
X1098Y82D01*
X1177Y82D02*
X1185Y82D01*
X1237Y82D02*
X1244Y82D01*
X1269Y82D02*
X1276Y82D01*
X1296Y82D02*
X1304Y82D01*
X1328Y82D02*
X1335Y82D01*
X1355Y82D02*
X1363Y82D01*
X1387Y82D02*
X1394Y82D01*
X1415Y82D02*
X1422Y82D01*
X1447Y82D02*
X1455Y82D01*
X1474Y82D02*
X1482Y82D01*
X1542Y82D02*
X1549Y82D01*
X1593Y82D02*
X1600Y82D01*
X1625Y82D02*
X1633Y82D01*
X1652Y82D02*
X1664Y82D01*
X1685Y82D02*
X1692Y82D01*
X1712Y82D02*
X1747Y82D01*
X1803Y82D02*
X1810Y82D01*
X1833Y82D02*
X1849Y82D01*
X1890Y82D02*
X1897Y82D01*
X1922Y82D02*
X1930Y82D01*
X583Y81D02*
X591Y81D01*
X643Y81D02*
X650Y81D01*
X675Y81D02*
X682Y81D01*
X702Y81D02*
X710Y81D01*
X734Y81D02*
X742Y81D01*
X762Y81D02*
X769Y81D01*
X821Y81D02*
X861Y81D01*
X897Y81D02*
X907Y81D01*
X1013Y81D02*
X1025Y81D01*
X1058Y81D02*
X1098Y81D01*
X1177Y81D02*
X1185Y81D01*
X1237Y81D02*
X1244Y81D01*
X1269Y81D02*
X1276Y81D01*
X1296Y81D02*
X1303Y81D01*
X1328Y81D02*
X1335Y81D01*
X1355Y81D02*
X1363Y81D01*
X1387Y81D02*
X1394Y81D01*
X1415Y81D02*
X1422Y81D01*
X1447Y81D02*
X1455Y81D01*
X1474Y81D02*
X1482Y81D01*
X1542Y81D02*
X1549Y81D01*
X1593Y81D02*
X1600Y81D01*
X1625Y81D02*
X1633Y81D01*
X1652Y81D02*
X1662Y81D01*
X1686Y81D02*
X1691Y81D01*
X1712Y81D02*
X1748Y81D01*
X1783Y81D02*
X1798Y81D01*
X1803Y81D02*
X1810Y81D01*
X1834Y81D02*
X1851Y81D01*
X1890Y81D02*
X1897Y81D01*
X1922Y81D02*
X1930Y81D01*
X583Y80D02*
X591Y80D01*
X643Y80D02*
X651Y80D01*
X675Y80D02*
X682Y80D01*
X703Y80D02*
X710Y80D01*
X734Y80D02*
X742Y80D01*
X762Y80D02*
X770Y80D01*
X821Y80D02*
X861Y80D01*
X898Y80D02*
X908Y80D01*
X1012Y80D02*
X1025Y80D01*
X1058Y80D02*
X1098Y80D01*
X1178Y80D02*
X1185Y80D01*
X1237Y80D02*
X1244Y80D01*
X1269Y80D02*
X1276Y80D01*
X1296Y80D02*
X1303Y80D01*
X1328Y80D02*
X1335Y80D01*
X1355Y80D02*
X1363Y80D01*
X1387Y80D02*
X1394Y80D01*
X1415Y80D02*
X1422Y80D01*
X1447Y80D02*
X1455Y80D01*
X1474Y80D02*
X1481Y80D01*
X1542Y80D02*
X1549Y80D01*
X1593Y80D02*
X1600Y80D01*
X1625Y80D02*
X1633Y80D01*
X1652Y80D02*
X1661Y80D01*
X1687Y80D02*
X1689Y80D01*
X1712Y80D02*
X1749Y80D01*
X1778Y80D02*
X1810Y80D01*
X1835Y80D02*
X1853Y80D01*
X1890Y80D02*
X1897Y80D01*
X1922Y80D02*
X1930Y80D01*
X583Y79D02*
X591Y79D01*
X643Y79D02*
X651Y79D01*
X674Y79D02*
X682Y79D01*
X703Y79D02*
X711Y79D01*
X734Y79D02*
X741Y79D01*
X762Y79D02*
X770Y79D01*
X821Y79D02*
X828Y79D01*
X853Y79D02*
X861Y79D01*
X899Y79D02*
X909Y79D01*
X1012Y79D02*
X1026Y79D01*
X1058Y79D02*
X1066Y79D01*
X1091Y79D02*
X1098Y79D01*
X1178Y79D02*
X1186Y79D01*
X1237Y79D02*
X1244Y79D01*
X1269Y79D02*
X1276Y79D01*
X1296Y79D02*
X1303Y79D01*
X1328Y79D02*
X1335Y79D01*
X1355Y79D02*
X1363Y79D01*
X1387Y79D02*
X1394Y79D01*
X1415Y79D02*
X1422Y79D01*
X1447Y79D02*
X1455Y79D01*
X1474Y79D02*
X1481Y79D01*
X1542Y79D02*
X1549Y79D01*
X1593Y79D02*
X1600Y79D01*
X1625Y79D02*
X1633Y79D01*
X1652Y79D02*
X1660Y79D01*
X1712Y79D02*
X1719Y79D01*
X1739Y79D02*
X1749Y79D01*
X1777Y79D02*
X1810Y79D01*
X1836Y79D02*
X1856Y79D01*
X1890Y79D02*
X1897Y79D01*
X1922Y79D02*
X1930Y79D01*
X583Y78D02*
X591Y78D01*
X644Y78D02*
X652Y78D01*
X674Y78D02*
X682Y78D01*
X703Y78D02*
X711Y78D01*
X733Y78D02*
X741Y78D01*
X763Y78D02*
X770Y78D01*
X821Y78D02*
X828Y78D01*
X853Y78D02*
X861Y78D01*
X900Y78D02*
X909Y78D01*
X1011Y78D02*
X1027Y78D01*
X1058Y78D02*
X1066Y78D01*
X1091Y78D02*
X1098Y78D01*
X1178Y78D02*
X1186Y78D01*
X1237Y78D02*
X1244Y78D01*
X1269Y78D02*
X1276Y78D01*
X1296Y78D02*
X1303Y78D01*
X1328Y78D02*
X1335Y78D01*
X1355Y78D02*
X1363Y78D01*
X1387Y78D02*
X1394Y78D01*
X1415Y78D02*
X1422Y78D01*
X1447Y78D02*
X1455Y78D01*
X1474Y78D02*
X1481Y78D01*
X1542Y78D02*
X1549Y78D01*
X1593Y78D02*
X1600Y78D01*
X1625Y78D02*
X1633Y78D01*
X1652Y78D02*
X1659Y78D01*
X1712Y78D02*
X1719Y78D01*
X1741Y78D02*
X1750Y78D01*
X1775Y78D02*
X1810Y78D01*
X1838Y78D02*
X1858Y78D01*
X1890Y78D02*
X1897Y78D01*
X1922Y78D02*
X1930Y78D01*
X583Y77D02*
X591Y77D01*
X644Y77D02*
X652Y77D01*
X673Y77D02*
X681Y77D01*
X703Y77D02*
X712Y77D01*
X733Y77D02*
X741Y77D01*
X763Y77D02*
X771Y77D01*
X821Y77D02*
X828Y77D01*
X853Y77D02*
X861Y77D01*
X901Y77D02*
X910Y77D01*
X1011Y77D02*
X1027Y77D01*
X1058Y77D02*
X1066Y77D01*
X1091Y77D02*
X1098Y77D01*
X1179Y77D02*
X1187Y77D01*
X1237Y77D02*
X1244Y77D01*
X1269Y77D02*
X1276Y77D01*
X1296Y77D02*
X1303Y77D01*
X1328Y77D02*
X1335Y77D01*
X1355Y77D02*
X1363Y77D01*
X1387Y77D02*
X1394Y77D01*
X1415Y77D02*
X1455Y77D01*
X1474Y77D02*
X1481Y77D01*
X1542Y77D02*
X1549Y77D01*
X1593Y77D02*
X1600Y77D01*
X1625Y77D02*
X1633Y77D01*
X1652Y77D02*
X1659Y77D01*
X1712Y77D02*
X1719Y77D01*
X1742Y77D02*
X1750Y77D01*
X1774Y77D02*
X1810Y77D01*
X1840Y77D02*
X1860Y77D01*
X1890Y77D02*
X1930Y77D01*
X583Y76D02*
X591Y76D01*
X644Y76D02*
X653Y76D01*
X673Y76D02*
X681Y76D01*
X704Y76D02*
X712Y76D01*
X732Y76D02*
X740Y76D01*
X763Y76D02*
X771Y76D01*
X821Y76D02*
X828Y76D01*
X853Y76D02*
X861Y76D01*
X901Y76D02*
X911Y76D01*
X1010Y76D02*
X1028Y76D01*
X1058Y76D02*
X1066Y76D01*
X1091Y76D02*
X1098Y76D01*
X1179Y76D02*
X1187Y76D01*
X1237Y76D02*
X1244Y76D01*
X1269Y76D02*
X1276Y76D01*
X1296Y76D02*
X1303Y76D01*
X1328Y76D02*
X1335Y76D01*
X1355Y76D02*
X1363Y76D01*
X1387Y76D02*
X1394Y76D01*
X1415Y76D02*
X1455Y76D01*
X1474Y76D02*
X1481Y76D01*
X1542Y76D02*
X1549Y76D01*
X1593Y76D02*
X1600Y76D01*
X1625Y76D02*
X1633Y76D01*
X1652Y76D02*
X1659Y76D01*
X1712Y76D02*
X1719Y76D01*
X1743Y76D02*
X1751Y76D01*
X1773Y76D02*
X1810Y76D01*
X1843Y76D02*
X1862Y76D01*
X1890Y76D02*
X1930Y76D01*
X583Y75D02*
X591Y75D01*
X645Y75D02*
X653Y75D01*
X672Y75D02*
X680Y75D01*
X704Y75D02*
X713Y75D01*
X732Y75D02*
X740Y75D01*
X764Y75D02*
X772Y75D01*
X821Y75D02*
X828Y75D01*
X853Y75D02*
X861Y75D01*
X902Y75D02*
X912Y75D01*
X1009Y75D02*
X1018Y75D01*
X1020Y75D02*
X1028Y75D01*
X1058Y75D02*
X1066Y75D01*
X1091Y75D02*
X1098Y75D01*
X1179Y75D02*
X1188Y75D01*
X1237Y75D02*
X1244Y75D01*
X1269Y75D02*
X1276Y75D01*
X1296Y75D02*
X1303Y75D01*
X1328Y75D02*
X1335Y75D01*
X1355Y75D02*
X1363Y75D01*
X1387Y75D02*
X1394Y75D01*
X1415Y75D02*
X1455Y75D01*
X1474Y75D02*
X1481Y75D01*
X1542Y75D02*
X1549Y75D01*
X1593Y75D02*
X1600Y75D01*
X1625Y75D02*
X1633Y75D01*
X1652Y75D02*
X1659Y75D01*
X1712Y75D02*
X1719Y75D01*
X1743Y75D02*
X1751Y75D01*
X1773Y75D02*
X1810Y75D01*
X1845Y75D02*
X1864Y75D01*
X1890Y75D02*
X1930Y75D01*
X583Y74D02*
X591Y74D01*
X645Y74D02*
X654Y74D01*
X672Y74D02*
X680Y74D01*
X705Y74D02*
X713Y74D01*
X731Y74D02*
X739Y74D01*
X764Y74D02*
X772Y74D01*
X821Y74D02*
X828Y74D01*
X853Y74D02*
X861Y74D01*
X903Y74D02*
X913Y74D01*
X1009Y74D02*
X1018Y74D01*
X1020Y74D02*
X1029Y74D01*
X1058Y74D02*
X1066Y74D01*
X1091Y74D02*
X1098Y74D01*
X1180Y74D02*
X1188Y74D01*
X1237Y74D02*
X1244Y74D01*
X1269Y74D02*
X1276Y74D01*
X1296Y74D02*
X1303Y74D01*
X1328Y74D02*
X1335Y74D01*
X1355Y74D02*
X1363Y74D01*
X1387Y74D02*
X1395Y74D01*
X1415Y74D02*
X1455Y74D01*
X1474Y74D02*
X1481Y74D01*
X1542Y74D02*
X1549Y74D01*
X1593Y74D02*
X1600Y74D01*
X1625Y74D02*
X1633Y74D01*
X1652Y74D02*
X1659Y74D01*
X1712Y74D02*
X1719Y74D01*
X1744Y74D02*
X1751Y74D01*
X1772Y74D02*
X1810Y74D01*
X1847Y74D02*
X1866Y74D01*
X1890Y74D02*
X1930Y74D01*
X583Y73D02*
X591Y73D01*
X646Y73D02*
X654Y73D01*
X671Y73D02*
X679Y73D01*
X705Y73D02*
X714Y73D01*
X731Y73D02*
X739Y73D01*
X765Y73D02*
X773Y73D01*
X821Y73D02*
X828Y73D01*
X853Y73D02*
X861Y73D01*
X904Y73D02*
X913Y73D01*
X1008Y73D02*
X1017Y73D01*
X1021Y73D02*
X1030Y73D01*
X1058Y73D02*
X1066Y73D01*
X1091Y73D02*
X1098Y73D01*
X1180Y73D02*
X1189Y73D01*
X1237Y73D02*
X1244Y73D01*
X1269Y73D02*
X1276Y73D01*
X1296Y73D02*
X1303Y73D01*
X1328Y73D02*
X1335Y73D01*
X1355Y73D02*
X1363Y73D01*
X1387Y73D02*
X1395Y73D01*
X1415Y73D02*
X1454Y73D01*
X1474Y73D02*
X1481Y73D01*
X1542Y73D02*
X1549Y73D01*
X1593Y73D02*
X1600Y73D01*
X1625Y73D02*
X1633Y73D01*
X1652Y73D02*
X1659Y73D01*
X1712Y73D02*
X1719Y73D01*
X1744Y73D02*
X1751Y73D01*
X1772Y73D02*
X1810Y73D01*
X1850Y73D02*
X1866Y73D01*
X1890Y73D02*
X1929Y73D01*
X583Y72D02*
X591Y72D01*
X646Y72D02*
X655Y72D01*
X671Y72D02*
X679Y72D01*
X706Y72D02*
X714Y72D01*
X730Y72D02*
X738Y72D01*
X765Y72D02*
X773Y72D01*
X821Y72D02*
X828Y72D01*
X853Y72D02*
X861Y72D01*
X904Y72D02*
X914Y72D01*
X1008Y72D02*
X1016Y72D01*
X1022Y72D02*
X1030Y72D01*
X1058Y72D02*
X1066Y72D01*
X1091Y72D02*
X1098Y72D01*
X1181Y72D02*
X1189Y72D01*
X1237Y72D02*
X1244Y72D01*
X1269Y72D02*
X1276Y72D01*
X1296Y72D02*
X1303Y72D01*
X1328Y72D02*
X1335Y72D01*
X1355Y72D02*
X1363Y72D01*
X1387Y72D02*
X1395Y72D01*
X1415Y72D02*
X1454Y72D01*
X1474Y72D02*
X1481Y72D01*
X1542Y72D02*
X1549Y72D01*
X1593Y72D02*
X1600Y72D01*
X1625Y72D02*
X1633Y72D01*
X1652Y72D02*
X1659Y72D01*
X1712Y72D02*
X1719Y72D01*
X1744Y72D02*
X1751Y72D01*
X1771Y72D02*
X1780Y72D01*
X1801Y72D02*
X1810Y72D01*
X1852Y72D02*
X1867Y72D01*
X1890Y72D02*
X1929Y72D01*
X583Y71D02*
X591Y71D01*
X647Y71D02*
X655Y71D01*
X670Y71D02*
X678Y71D01*
X706Y71D02*
X715Y71D01*
X730Y71D02*
X738Y71D01*
X766Y71D02*
X774Y71D01*
X821Y71D02*
X828Y71D01*
X853Y71D02*
X861Y71D01*
X905Y71D02*
X915Y71D01*
X1007Y71D02*
X1016Y71D01*
X1022Y71D02*
X1031Y71D01*
X1058Y71D02*
X1066Y71D01*
X1091Y71D02*
X1098Y71D01*
X1181Y71D02*
X1190Y71D01*
X1237Y71D02*
X1244Y71D01*
X1269Y71D02*
X1276Y71D01*
X1296Y71D02*
X1303Y71D01*
X1328Y71D02*
X1335Y71D01*
X1355Y71D02*
X1363Y71D01*
X1387Y71D02*
X1395Y71D01*
X1415Y71D02*
X1454Y71D01*
X1474Y71D02*
X1481Y71D01*
X1542Y71D02*
X1549Y71D01*
X1593Y71D02*
X1600Y71D01*
X1625Y71D02*
X1633Y71D01*
X1652Y71D02*
X1659Y71D01*
X1712Y71D02*
X1719Y71D01*
X1744Y71D02*
X1751Y71D01*
X1771Y71D02*
X1779Y71D01*
X1802Y71D02*
X1810Y71D01*
X1854Y71D02*
X1868Y71D01*
X1890Y71D02*
X1929Y71D01*
X583Y70D02*
X591Y70D01*
X647Y70D02*
X656Y70D01*
X670Y70D02*
X678Y70D01*
X707Y70D02*
X715Y70D01*
X729Y70D02*
X737Y70D01*
X766Y70D02*
X774Y70D01*
X821Y70D02*
X828Y70D01*
X853Y70D02*
X861Y70D01*
X906Y70D02*
X916Y70D01*
X1007Y70D02*
X1015Y70D01*
X1023Y70D02*
X1031Y70D01*
X1058Y70D02*
X1066Y70D01*
X1091Y70D02*
X1098Y70D01*
X1182Y70D02*
X1190Y70D01*
X1237Y70D02*
X1244Y70D01*
X1269Y70D02*
X1276Y70D01*
X1296Y70D02*
X1303Y70D01*
X1328Y70D02*
X1335Y70D01*
X1355Y70D02*
X1363Y70D01*
X1387Y70D02*
X1395Y70D01*
X1415Y70D02*
X1453Y70D01*
X1474Y70D02*
X1481Y70D01*
X1542Y70D02*
X1549Y70D01*
X1593Y70D02*
X1600Y70D01*
X1625Y70D02*
X1633Y70D01*
X1652Y70D02*
X1659Y70D01*
X1712Y70D02*
X1719Y70D01*
X1744Y70D02*
X1751Y70D01*
X1771Y70D02*
X1778Y70D01*
X1803Y70D02*
X1810Y70D01*
X1856Y70D02*
X1869Y70D01*
X1890Y70D02*
X1928Y70D01*
X583Y69D02*
X591Y69D01*
X648Y69D02*
X656Y69D01*
X669Y69D02*
X677Y69D01*
X707Y69D02*
X716Y69D01*
X729Y69D02*
X737Y69D01*
X767Y69D02*
X775Y69D01*
X821Y69D02*
X828Y69D01*
X853Y69D02*
X861Y69D01*
X907Y69D02*
X916Y69D01*
X1006Y69D02*
X1015Y69D01*
X1023Y69D02*
X1032Y69D01*
X1058Y69D02*
X1066Y69D01*
X1091Y69D02*
X1098Y69D01*
X1182Y69D02*
X1191Y69D01*
X1237Y69D02*
X1244Y69D01*
X1269Y69D02*
X1276Y69D01*
X1296Y69D02*
X1303Y69D01*
X1328Y69D02*
X1335Y69D01*
X1355Y69D02*
X1363Y69D01*
X1387Y69D02*
X1395Y69D01*
X1415Y69D02*
X1422Y69D01*
X1474Y69D02*
X1482Y69D01*
X1542Y69D02*
X1549Y69D01*
X1593Y69D02*
X1600Y69D01*
X1625Y69D02*
X1633Y69D01*
X1652Y69D02*
X1659Y69D01*
X1712Y69D02*
X1719Y69D01*
X1744Y69D02*
X1751Y69D01*
X1771Y69D02*
X1778Y69D01*
X1803Y69D02*
X1810Y69D01*
X1859Y69D02*
X1869Y69D01*
X1890Y69D02*
X1897Y69D01*
X583Y68D02*
X591Y68D01*
X648Y68D02*
X657Y68D01*
X669Y68D02*
X677Y68D01*
X708Y68D02*
X716Y68D01*
X728Y68D02*
X736Y68D01*
X767Y68D02*
X775Y68D01*
X821Y68D02*
X828Y68D01*
X853Y68D02*
X861Y68D01*
X908Y68D02*
X917Y68D01*
X1005Y68D02*
X1014Y68D01*
X1024Y68D02*
X1033Y68D01*
X1058Y68D02*
X1066Y68D01*
X1091Y68D02*
X1098Y68D01*
X1183Y68D02*
X1191Y68D01*
X1237Y68D02*
X1244Y68D01*
X1269Y68D02*
X1276Y68D01*
X1296Y68D02*
X1303Y68D01*
X1328Y68D02*
X1335Y68D01*
X1355Y68D02*
X1363Y68D01*
X1387Y68D02*
X1395Y68D01*
X1415Y68D02*
X1422Y68D01*
X1474Y68D02*
X1482Y68D01*
X1542Y68D02*
X1549Y68D01*
X1593Y68D02*
X1600Y68D01*
X1625Y68D02*
X1633Y68D01*
X1652Y68D02*
X1659Y68D01*
X1712Y68D02*
X1719Y68D01*
X1744Y68D02*
X1751Y68D01*
X1771Y68D02*
X1778Y68D01*
X1803Y68D02*
X1810Y68D01*
X1861Y68D02*
X1870Y68D01*
X1890Y68D02*
X1897Y68D01*
X583Y67D02*
X591Y67D01*
X649Y67D02*
X657Y67D01*
X668Y67D02*
X676Y67D01*
X708Y67D02*
X717Y67D01*
X728Y67D02*
X736Y67D01*
X768Y67D02*
X776Y67D01*
X821Y67D02*
X828Y67D01*
X853Y67D02*
X861Y67D01*
X884Y67D02*
X884Y67D01*
X908Y67D02*
X918Y67D01*
X1005Y67D02*
X1013Y67D01*
X1024Y67D02*
X1033Y67D01*
X1058Y67D02*
X1066Y67D01*
X1091Y67D02*
X1098Y67D01*
X1183Y67D02*
X1192Y67D01*
X1237Y67D02*
X1244Y67D01*
X1269Y67D02*
X1276Y67D01*
X1296Y67D02*
X1303Y67D01*
X1328Y67D02*
X1335Y67D01*
X1355Y67D02*
X1363Y67D01*
X1387Y67D02*
X1395Y67D01*
X1415Y67D02*
X1422Y67D01*
X1474Y67D02*
X1483Y67D01*
X1542Y67D02*
X1549Y67D01*
X1593Y67D02*
X1600Y67D01*
X1625Y67D02*
X1633Y67D01*
X1652Y67D02*
X1659Y67D01*
X1712Y67D02*
X1719Y67D01*
X1744Y67D02*
X1751Y67D01*
X1771Y67D02*
X1778Y67D01*
X1803Y67D02*
X1810Y67D01*
X1862Y67D02*
X1870Y67D01*
X1890Y67D02*
X1897Y67D01*
X583Y66D02*
X591Y66D01*
X649Y66D02*
X658Y66D01*
X668Y66D02*
X676Y66D01*
X709Y66D02*
X717Y66D01*
X727Y66D02*
X735Y66D01*
X768Y66D02*
X776Y66D01*
X821Y66D02*
X828Y66D01*
X853Y66D02*
X861Y66D01*
X882Y66D02*
X886Y66D01*
X909Y66D02*
X919Y66D01*
X1004Y66D02*
X1013Y66D01*
X1025Y66D02*
X1034Y66D01*
X1058Y66D02*
X1066Y66D01*
X1091Y66D02*
X1098Y66D01*
X1184Y66D02*
X1192Y66D01*
X1237Y66D02*
X1244Y66D01*
X1269Y66D02*
X1276Y66D01*
X1296Y66D02*
X1303Y66D01*
X1328Y66D02*
X1335Y66D01*
X1355Y66D02*
X1363Y66D01*
X1388Y66D02*
X1395Y66D01*
X1415Y66D02*
X1422Y66D01*
X1475Y66D02*
X1484Y66D01*
X1542Y66D02*
X1549Y66D01*
X1568Y66D02*
X1572Y66D01*
X1593Y66D02*
X1600Y66D01*
X1625Y66D02*
X1633Y66D01*
X1652Y66D02*
X1659Y66D01*
X1712Y66D02*
X1719Y66D01*
X1744Y66D02*
X1751Y66D01*
X1771Y66D02*
X1778Y66D01*
X1803Y66D02*
X1810Y66D01*
X1862Y66D02*
X1870Y66D01*
X1890Y66D02*
X1897Y66D01*
X583Y65D02*
X591Y65D01*
X650Y65D02*
X658Y65D01*
X667Y65D02*
X675Y65D01*
X709Y65D02*
X718Y65D01*
X727Y65D02*
X735Y65D01*
X769Y65D02*
X777Y65D01*
X821Y65D02*
X828Y65D01*
X853Y65D02*
X861Y65D01*
X881Y65D02*
X887Y65D01*
X910Y65D02*
X919Y65D01*
X1004Y65D02*
X1012Y65D01*
X1026Y65D02*
X1034Y65D01*
X1058Y65D02*
X1066Y65D01*
X1091Y65D02*
X1098Y65D01*
X1184Y65D02*
X1193Y65D01*
X1237Y65D02*
X1244Y65D01*
X1269Y65D02*
X1276Y65D01*
X1296Y65D02*
X1303Y65D01*
X1328Y65D02*
X1335Y65D01*
X1355Y65D02*
X1363Y65D01*
X1388Y65D02*
X1395Y65D01*
X1415Y65D02*
X1422Y65D01*
X1475Y65D02*
X1485Y65D01*
X1542Y65D02*
X1549Y65D01*
X1567Y65D02*
X1573Y65D01*
X1593Y65D02*
X1600Y65D01*
X1625Y65D02*
X1633Y65D01*
X1652Y65D02*
X1659Y65D01*
X1712Y65D02*
X1719Y65D01*
X1743Y65D02*
X1751Y65D01*
X1771Y65D02*
X1778Y65D01*
X1803Y65D02*
X1810Y65D01*
X1863Y65D02*
X1870Y65D01*
X1890Y65D02*
X1897Y65D01*
X583Y64D02*
X591Y64D01*
X650Y64D02*
X659Y64D01*
X667Y64D02*
X675Y64D01*
X710Y64D02*
X718Y64D01*
X726Y64D02*
X734Y64D01*
X769Y64D02*
X778Y64D01*
X821Y64D02*
X828Y64D01*
X853Y64D02*
X861Y64D01*
X880Y64D02*
X887Y64D01*
X911Y64D02*
X920Y64D01*
X1003Y64D02*
X1012Y64D01*
X1026Y64D02*
X1035Y64D01*
X1058Y64D02*
X1066Y64D01*
X1091Y64D02*
X1098Y64D01*
X1185Y64D02*
X1193Y64D01*
X1237Y64D02*
X1245Y64D01*
X1268Y64D02*
X1276Y64D01*
X1296Y64D02*
X1303Y64D01*
X1328Y64D02*
X1335Y64D01*
X1355Y64D02*
X1363Y64D01*
X1388Y64D02*
X1395Y64D01*
X1415Y64D02*
X1423Y64D01*
X1476Y64D02*
X1486Y64D01*
X1542Y64D02*
X1549Y64D01*
X1566Y64D02*
X1573Y64D01*
X1593Y64D02*
X1601Y64D01*
X1624Y64D02*
X1632Y64D01*
X1652Y64D02*
X1659Y64D01*
X1712Y64D02*
X1719Y64D01*
X1743Y64D02*
X1751Y64D01*
X1771Y64D02*
X1778Y64D01*
X1801Y64D02*
X1811Y64D01*
X1863Y64D02*
X1870Y64D01*
X1890Y64D02*
X1898Y64D01*
X583Y63D02*
X591Y63D01*
X651Y63D02*
X659Y63D01*
X666Y63D02*
X674Y63D01*
X710Y63D02*
X719Y63D01*
X726Y63D02*
X734Y63D01*
X770Y63D02*
X778Y63D01*
X821Y63D02*
X828Y63D01*
X853Y63D02*
X861Y63D01*
X880Y63D02*
X888Y63D01*
X911Y63D02*
X920Y63D01*
X1002Y63D02*
X1011Y63D01*
X1027Y63D02*
X1035Y63D01*
X1058Y63D02*
X1066Y63D01*
X1091Y63D02*
X1098Y63D01*
X1185Y63D02*
X1194Y63D01*
X1237Y63D02*
X1246Y63D01*
X1267Y63D02*
X1276Y63D01*
X1296Y63D02*
X1303Y63D01*
X1328Y63D02*
X1335Y63D01*
X1355Y63D02*
X1363Y63D01*
X1388Y63D02*
X1395Y63D01*
X1415Y63D02*
X1424Y63D01*
X1476Y63D02*
X1488Y63D01*
X1542Y63D02*
X1549Y63D01*
X1566Y63D02*
X1573Y63D01*
X1593Y63D02*
X1602Y63D01*
X1623Y63D02*
X1632Y63D01*
X1652Y63D02*
X1659Y63D01*
X1712Y63D02*
X1719Y63D01*
X1742Y63D02*
X1750Y63D01*
X1771Y63D02*
X1778Y63D01*
X1799Y63D02*
X1811Y63D01*
X1832Y63D02*
X1835Y63D01*
X1862Y63D02*
X1870Y63D01*
X1890Y63D02*
X1899Y63D01*
X583Y62D02*
X591Y62D01*
X651Y62D02*
X660Y62D01*
X666Y62D02*
X674Y62D01*
X711Y62D02*
X719Y62D01*
X725Y62D02*
X733Y62D01*
X770Y62D02*
X779Y62D01*
X821Y62D02*
X828Y62D01*
X853Y62D02*
X861Y62D01*
X880Y62D02*
X888Y62D01*
X912Y62D02*
X920Y62D01*
X1002Y62D02*
X1011Y62D01*
X1027Y62D02*
X1036Y62D01*
X1058Y62D02*
X1066Y62D01*
X1091Y62D02*
X1098Y62D01*
X1186Y62D02*
X1194Y62D01*
X1237Y62D02*
X1247Y62D01*
X1266Y62D02*
X1275Y62D01*
X1296Y62D02*
X1303Y62D01*
X1328Y62D02*
X1336Y62D01*
X1355Y62D02*
X1363Y62D01*
X1388Y62D02*
X1395Y62D01*
X1416Y62D02*
X1425Y62D01*
X1477Y62D02*
X1489Y62D01*
X1542Y62D02*
X1549Y62D01*
X1565Y62D02*
X1573Y62D01*
X1594Y62D02*
X1603Y62D01*
X1622Y62D02*
X1632Y62D01*
X1652Y62D02*
X1659Y62D01*
X1712Y62D02*
X1719Y62D01*
X1741Y62D02*
X1750Y62D01*
X1771Y62D02*
X1779Y62D01*
X1798Y62D02*
X1811Y62D01*
X1831Y62D02*
X1837Y62D01*
X1862Y62D02*
X1870Y62D01*
X1891Y62D02*
X1900Y62D01*
X583Y61D02*
X591Y61D01*
X652Y61D02*
X660Y61D01*
X665Y61D02*
X673Y61D01*
X711Y61D02*
X720Y61D01*
X724Y61D02*
X733Y61D01*
X771Y61D02*
X779Y61D01*
X821Y61D02*
X828Y61D01*
X853Y61D02*
X861Y61D01*
X880Y61D02*
X888Y61D01*
X913Y61D02*
X920Y61D01*
X1001Y61D02*
X1010Y61D01*
X1028Y61D02*
X1037Y61D01*
X1058Y61D02*
X1066Y61D01*
X1091Y61D02*
X1098Y61D01*
X1186Y61D02*
X1195Y61D01*
X1238Y61D02*
X1248Y61D01*
X1265Y61D02*
X1275Y61D01*
X1296Y61D02*
X1303Y61D01*
X1328Y61D02*
X1336Y61D01*
X1355Y61D02*
X1363Y61D01*
X1388Y61D02*
X1395Y61D01*
X1416Y61D02*
X1426Y61D01*
X1478Y61D02*
X1490Y61D01*
X1542Y61D02*
X1550Y61D01*
X1564Y61D02*
X1573Y61D01*
X1594Y61D02*
X1605Y61D01*
X1621Y61D02*
X1631Y61D01*
X1652Y61D02*
X1659Y61D01*
X1712Y61D02*
X1719Y61D01*
X1740Y61D02*
X1750Y61D01*
X1771Y61D02*
X1780Y61D01*
X1796Y61D02*
X1811Y61D01*
X1831Y61D02*
X1839Y61D01*
X1861Y61D02*
X1870Y61D01*
X1891Y61D02*
X1901Y61D01*
X583Y60D02*
X619Y60D01*
X652Y60D02*
X673Y60D01*
X712Y60D02*
X732Y60D01*
X771Y60D02*
X798Y60D01*
X821Y60D02*
X828Y60D01*
X853Y60D02*
X861Y60D01*
X881Y60D02*
X920Y60D01*
X1001Y60D02*
X1009Y60D01*
X1029Y60D02*
X1037Y60D01*
X1058Y60D02*
X1066Y60D01*
X1091Y60D02*
X1098Y60D01*
X1187Y60D02*
X1213Y60D01*
X1238Y60D02*
X1274Y60D01*
X1296Y60D02*
X1303Y60D01*
X1328Y60D02*
X1336Y60D01*
X1355Y60D02*
X1363Y60D01*
X1388Y60D02*
X1395Y60D01*
X1417Y60D02*
X1451Y60D01*
X1479Y60D02*
X1510Y60D01*
X1542Y60D02*
X1573Y60D01*
X1595Y60D02*
X1631Y60D01*
X1652Y60D02*
X1659Y60D01*
X1712Y60D02*
X1749Y60D01*
X1772Y60D02*
X1811Y60D01*
X1830Y60D02*
X1869Y60D01*
X1892Y60D02*
X1926Y60D01*
X583Y59D02*
X622Y59D01*
X653Y59D02*
X672Y59D01*
X712Y59D02*
X732Y59D01*
X772Y59D02*
X800Y59D01*
X821Y59D02*
X828Y59D01*
X853Y59D02*
X861Y59D01*
X881Y59D02*
X920Y59D01*
X1000Y59D02*
X1009Y59D01*
X1029Y59D02*
X1038Y59D01*
X1058Y59D02*
X1066Y59D01*
X1091Y59D02*
X1098Y59D01*
X1187Y59D02*
X1216Y59D01*
X1239Y59D02*
X1274Y59D01*
X1296Y59D02*
X1303Y59D01*
X1328Y59D02*
X1336Y59D01*
X1355Y59D02*
X1363Y59D01*
X1388Y59D02*
X1395Y59D01*
X1417Y59D02*
X1453Y59D01*
X1480Y59D02*
X1512Y59D01*
X1543Y59D02*
X1572Y59D01*
X1595Y59D02*
X1630Y59D01*
X1652Y59D02*
X1659Y59D01*
X1712Y59D02*
X1748Y59D01*
X1772Y59D02*
X1811Y59D01*
X1830Y59D02*
X1869Y59D01*
X1892Y59D02*
X1928Y59D01*
X583Y58D02*
X623Y58D01*
X653Y58D02*
X672Y58D01*
X713Y58D02*
X731Y58D01*
X772Y58D02*
X801Y58D01*
X821Y58D02*
X828Y58D01*
X853Y58D02*
X861Y58D01*
X881Y58D02*
X920Y58D01*
X1000Y58D02*
X1008Y58D01*
X1030Y58D02*
X1038Y58D01*
X1058Y58D02*
X1066Y58D01*
X1091Y58D02*
X1098Y58D01*
X1188Y58D02*
X1216Y58D01*
X1240Y58D02*
X1273Y58D01*
X1296Y58D02*
X1303Y58D01*
X1328Y58D02*
X1336Y58D01*
X1355Y58D02*
X1363Y58D01*
X1388Y58D02*
X1395Y58D01*
X1418Y58D02*
X1454Y58D01*
X1482Y58D02*
X1513Y58D01*
X1543Y58D02*
X1572Y58D01*
X1596Y58D02*
X1629Y58D01*
X1652Y58D02*
X1659Y58D01*
X1712Y58D02*
X1748Y58D01*
X1773Y58D02*
X1811Y58D01*
X1831Y58D02*
X1868Y58D01*
X1893Y58D02*
X1929Y58D01*
X583Y57D02*
X623Y57D01*
X654Y57D02*
X671Y57D01*
X713Y57D02*
X731Y57D01*
X773Y57D02*
X801Y57D01*
X821Y57D02*
X828Y57D01*
X853Y57D02*
X861Y57D01*
X882Y57D02*
X919Y57D01*
X999Y57D02*
X1008Y57D01*
X1030Y57D02*
X1039Y57D01*
X1058Y57D02*
X1066Y57D01*
X1091Y57D02*
X1098Y57D01*
X1189Y57D02*
X1217Y57D01*
X1241Y57D02*
X1272Y57D01*
X1296Y57D02*
X1303Y57D01*
X1328Y57D02*
X1336Y57D01*
X1355Y57D02*
X1363Y57D01*
X1388Y57D02*
X1395Y57D01*
X1419Y57D02*
X1454Y57D01*
X1483Y57D02*
X1514Y57D01*
X1544Y57D02*
X1571Y57D01*
X1597Y57D02*
X1628Y57D01*
X1652Y57D02*
X1659Y57D01*
X1712Y57D02*
X1747Y57D01*
X1773Y57D02*
X1811Y57D01*
X1831Y57D02*
X1868Y57D01*
X1894Y57D02*
X1929Y57D01*
X583Y56D02*
X623Y56D01*
X655Y56D02*
X671Y56D01*
X714Y56D02*
X730Y56D01*
X774Y56D02*
X801Y56D01*
X821Y56D02*
X828Y56D01*
X854Y56D02*
X861Y56D01*
X883Y56D02*
X919Y56D01*
X999Y56D02*
X1007Y56D01*
X1031Y56D02*
X1039Y56D01*
X1058Y56D02*
X1066Y56D01*
X1091Y56D02*
X1098Y56D01*
X1189Y56D02*
X1217Y56D01*
X1242Y56D02*
X1271Y56D01*
X1296Y56D02*
X1303Y56D01*
X1329Y56D02*
X1336Y56D01*
X1355Y56D02*
X1363Y56D01*
X1388Y56D02*
X1395Y56D01*
X1420Y56D02*
X1455Y56D01*
X1484Y56D02*
X1514Y56D01*
X1545Y56D02*
X1570Y56D01*
X1599Y56D02*
X1627Y56D01*
X1652Y56D02*
X1659Y56D01*
X1712Y56D02*
X1746Y56D01*
X1774Y56D02*
X1811Y56D01*
X1832Y56D02*
X1867Y56D01*
X1895Y56D02*
X1930Y56D01*
X583Y55D02*
X623Y55D01*
X656Y55D02*
X670Y55D01*
X715Y55D02*
X729Y55D01*
X775Y55D02*
X801Y55D01*
X821Y55D02*
X828Y55D01*
X854Y55D02*
X861Y55D01*
X884Y55D02*
X918Y55D01*
X999Y55D02*
X1006Y55D01*
X1031Y55D02*
X1039Y55D01*
X1059Y55D02*
X1066Y55D01*
X1091Y55D02*
X1098Y55D01*
X1190Y55D02*
X1217Y55D01*
X1243Y55D02*
X1269Y55D01*
X1296Y55D02*
X1303Y55D01*
X1329Y55D02*
X1336Y55D01*
X1355Y55D02*
X1362Y55D01*
X1388Y55D02*
X1395Y55D01*
X1422Y55D02*
X1454Y55D01*
X1485Y55D02*
X1514Y55D01*
X1546Y55D02*
X1569Y55D01*
X1600Y55D02*
X1626Y55D01*
X1652Y55D02*
X1659Y55D01*
X1712Y55D02*
X1744Y55D01*
X1775Y55D02*
X1801Y55D01*
X1804Y55D02*
X1811Y55D01*
X1833Y55D02*
X1866Y55D01*
X1897Y55D02*
X1929Y55D01*
X583Y54D02*
X623Y54D01*
X657Y54D02*
X669Y54D01*
X716Y54D02*
X728Y54D01*
X776Y54D02*
X801Y54D01*
X821Y54D02*
X828Y54D01*
X854Y54D02*
X860Y54D01*
X885Y54D02*
X917Y54D01*
X1000Y54D02*
X1006Y54D01*
X1032Y54D02*
X1038Y54D01*
X1059Y54D02*
X1065Y54D01*
X1092Y54D02*
X1098Y54D01*
X1192Y54D02*
X1217Y54D01*
X1245Y54D02*
X1268Y54D01*
X1296Y54D02*
X1303Y54D01*
X1329Y54D02*
X1335Y54D01*
X1356Y54D02*
X1362Y54D01*
X1388Y54D02*
X1395Y54D01*
X1423Y54D02*
X1454Y54D01*
X1486Y54D02*
X1513Y54D01*
X1547Y54D02*
X1568Y54D01*
X1601Y54D02*
X1624Y54D01*
X1653Y54D02*
X1659Y54D01*
X1712Y54D02*
X1743Y54D01*
X1776Y54D02*
X1799Y54D01*
X1804Y54D02*
X1810Y54D01*
X1835Y54D02*
X1865Y54D01*
X1898Y54D02*
X1929Y54D01*
X583Y53D02*
X622Y53D01*
X658Y53D02*
X667Y53D01*
X718Y53D02*
X726Y53D01*
X778Y53D02*
X800Y53D01*
X822Y53D02*
X827Y53D01*
X855Y53D02*
X859Y53D01*
X886Y53D02*
X915Y53D01*
X1000Y53D02*
X1005Y53D01*
X1033Y53D02*
X1038Y53D01*
X1060Y53D02*
X1064Y53D01*
X1092Y53D02*
X1097Y53D01*
X1193Y53D02*
X1216Y53D01*
X1247Y53D02*
X1266Y53D01*
X1297Y53D02*
X1302Y53D01*
X1330Y53D02*
X1334Y53D01*
X1357Y53D02*
X1361Y53D01*
X1389Y53D02*
X1394Y53D01*
X1425Y53D02*
X1453Y53D01*
X1488Y53D02*
X1513Y53D01*
X1549Y53D02*
X1566Y53D01*
X1603Y53D02*
X1623Y53D01*
X1653Y53D02*
X1658Y53D01*
X1712Y53D02*
X1741Y53D01*
X1778Y53D02*
X1798Y53D01*
X1805Y53D02*
X1809Y53D01*
X1837Y53D02*
X1863Y53D01*
X1900Y53D02*
X1928Y53D01*
X584Y52D02*
X620Y52D01*
X661Y52D02*
X664Y52D01*
X720Y52D02*
X724Y52D01*
X781Y52D02*
X798Y52D01*
X824Y52D02*
X825Y52D01*
X856Y52D02*
X858Y52D01*
X889Y52D02*
X913Y52D01*
X1002Y52D02*
X1003Y52D01*
X1034Y52D02*
X1036Y52D01*
X1061Y52D02*
X1063Y52D01*
X1094Y52D02*
X1095Y52D01*
X1196Y52D02*
X1214Y52D01*
X1250Y52D02*
X1263Y52D01*
X1299Y52D02*
X1300Y52D01*
X1331Y52D02*
X1333Y52D01*
X1358Y52D02*
X1360Y52D01*
X1391Y52D02*
X1392Y52D01*
X1428Y52D02*
X1452Y52D01*
X1491Y52D02*
X1511Y52D01*
X1551Y52D02*
X1563Y52D01*
X1606Y52D02*
X1620Y52D01*
X1655Y52D02*
X1656Y52D01*
X1712Y52D02*
X1737Y52D01*
X1781Y52D02*
X1796Y52D01*
X1806Y52D02*
X1808Y52D01*
X1840Y52D02*
X1860Y52D01*
X1903Y52D02*
X1927Y52D01*
D02*
G04 End of Silk1*
M02*